<svg xmlns="http://www.w3.org/2000/svg" viewBox="0 0 500 500"><g id="freepik--background-complete--inject-67"><path d="M348.63,241.81s26.41,9.19,15.82,21.24-30.15,20.77-18.21,28.56c11.94,7.79,118.68,3.49,118.68,3.49l-13.6-53.29h-102.69Z" style="fill:#f0f0f0;"></path><path d="M466.42,346.99c-14.14-18.21-237.56-23.45-250.69-36.18-13.13-12.73,34.01-44.97,33.78-59.17-.24-14.2-209.8-6.99-209.8-6.99l-.07,79.94c2.7,15.01,14.66,27.62,28.59,34.33,15.26,7.36,32.6,8.86,49.52,9.64,16.92,.78,34.13,1,50.28,6.1,15.79,4.99,30.74,15.57,36.71,30.96,127.89,.33,283.36,.52,283.17-.54-.33-1.79-7.35-39.89-21.49-58.1Z" style="fill:#f0f0f0;"></path><g><g><g><path d="M443.92,330.2h-180.75c-3.23,0-5.86-2.63-5.86-5.86V61.06c0-3.23,2.63-5.86,5.86-5.86h180.75c3.23,0,5.86,2.63,5.86,5.86V324.34c0,3.23-2.63,5.86-5.86,5.86ZM263.17,55.45c-3.09,0-5.61,2.52-5.61,5.61V324.34c0,3.09,2.52,5.61,5.61,5.61h180.75c3.09,0,5.61-2.52,5.61-5.61V61.06c0-3.09-2.52-5.61-5.61-5.61h-180.75Z" style="fill:#e0e0e0;"></path><path d="M235.49,330.2H54.75c-3.23,0-5.86-2.63-5.86-5.86V61.06c0-3.23,2.63-5.86,5.86-5.86H235.49c3.23,0,5.86,2.63,5.86,5.86V324.34c0,3.23-2.63,5.86-5.86,5.86ZM54.75,55.45c-3.09,0-5.61,2.52-5.61,5.61V324.34c0,3.09,2.52,5.61,5.61,5.61H235.49c3.09,0,5.61-2.52,5.61-5.61V61.06c0-3.09-2.52-5.61-5.61-5.61H54.75Z" style="fill:#e0e0e0;"></path></g><rect x="0" y="391.27" width="500" height=".25" style="fill:#e0e0e0;"></rect></g><rect x="51.67" y="405.53" width="16.06" height=".25" style="fill:#e0e0e0;"></rect><rect x="170.35" y="402.82" width="53.53" height=".25" style="fill:#e0e0e0;"></rect><rect x="68.73" y="414.82" width="36.25" height=".25" style="fill:#e0e0e0;"></rect><rect x="378.35" y="402.69" width="43.19" height=".25" style="fill:#e0e0e0;"></rect><rect x="430.45" y="402.69" width="6.33" height=".25" style="fill:#e0e0e0;"></rect><rect x="316.21" y="408.92" width="53.89" height=".25" style="fill:#e0e0e0;"></rect></g><path d="M127.5,74.6c-1.98-1.5-4.88-1.67-7.03-.41-2.85-5.76-10.79-8.3-16.45-5.27-1.48-6.2-7.59-10.97-13.97-10.9-6.38,.08-12.37,4.99-13.7,11.23-.21,.99-.35,2.08-1.06,2.8-1.15,1.18-3.08,.78-4.72,.65-5.17-.4-10.36,3.22-11.77,8.21l71.13-.26c.62-2.41-.45-4.56-2.43-6.06Z" style="fill:#f0f0f0;"></path><path d="M341.95,53.94c-2.06-1.55-5.06-1.73-7.29-.43-2.95-5.97-11.19-8.6-17.06-5.46-1.53-6.43-7.87-11.38-14.48-11.3-6.61,.08-12.83,5.17-14.2,11.64-.22,1.03-.36,2.15-1.1,2.9-1.19,1.22-3.19,.81-4.89,.68-5.35-.42-10.74,3.34-12.2,8.51l73.74-.27c.65-2.5-.47-4.73-2.52-6.28Z" style="fill:#f0f0f0;"></path><path d="M171.75,50.85c-.86-.65-2.12-.73-3.06-.18-1.24-2.5-4.69-3.61-7.15-2.29-.64-2.7-3.3-4.77-6.07-4.74-2.77,.03-5.38,2.17-5.96,4.88-.09,.43-.15,.9-.46,1.22-.5,.51-1.34,.34-2.05,.28-2.25-.18-4.51,1.4-5.12,3.57l30.93-.11c.27-1.05-.2-1.98-1.06-2.64Z" style="fill:#f0f0f0;"></path><path d="M402.58,72.82c-.86-.65-2.12-.73-3.06-.18-1.24-2.5-4.69-3.61-7.15-2.29-.64-2.7-3.3-4.77-6.07-4.74-2.77,.03-5.38,2.17-5.96,4.88-.09,.43-.15,.9-.46,1.22-.5,.51-1.34,.34-2.05,.28-2.25-.18-4.51,1.4-5.12,3.57l30.93-.11c.27-1.05-.2-1.98-1.06-2.64Z" style="fill:#f0f0f0;"></path><path d="M440.57,47.68c-1.31-.99-3.22-1.1-4.63-.27-1.88-3.79-7.11-5.47-10.84-3.47-.97-4.09-5-7.23-9.2-7.18-4.2,.05-8.15,3.29-9.03,7.4-.14,.65-.23,1.37-.7,1.85-.76,.78-2.03,.52-3.11,.43-3.4-.27-6.83,2.12-7.75,5.41l46.87-.17c.41-1.59-.3-3.01-1.6-3.99Z" style="fill:#f0f0f0;"></path></g><g id="freepik--Shadow--inject-67"><path d="M484.38,455.76c0,3.73-103.08,6.76-230.23,6.76s-230.23-3.03-230.23-6.76,103.08-6.76,230.23-6.76,230.23,3.03,230.23,6.76Z" style="fill:#f5f5f5;"></path></g><g id="freepik--College--inject-67"><g><rect x="181.58" y="88.4" width="132.92" height="129.48" style="fill:#263238;"></rect><rect x="181.58" y="88.4" width="132.92" height="129.48" style="fill:#fff; opacity:.5;"></rect><rect x="189.07" y="169.12" width="119.41" height="46.3" style="fill:#fff; opacity:.3;"></rect><rect x="190.22" y="169.12" width="117.48" height="2.68" style="fill:#fff;"></rect><path d="M194.66,215.35c1.34,0,0-113.52,0-113.52l7.02-5.64h98.1l3.51,3.51v115.65h12.34V86.3H187.36s-1.97,132.47,0,130.5,7.29-1.45,7.29-1.45Z" style="opacity:.1;"></path><g><rect x="39.57" y="103.22" width="135.71" height="128.06" style="fill:#263238;"></rect><rect x="39.57" y="103.22" width="135.71" height="128.06" style="fill:#fff; opacity:.5;"></rect><polygon points="173.31 103.22 36.89 103.22 43.51 91.28 173.31 91.28 173.31 103.22" style="fill:#263238;"></polygon><rect x="39.57" y="181.37" width="133.74" height="1.59" rx=".76" ry=".76" style="fill:#fff;"></rect><rect x="39.72" y="182.17" width="135.71" height="49.11" style="fill:#fff; opacity:.3;"></rect><g><g><rect x="58.49" y="115.08" width="10.66" height="21.5" style="fill:#407BFF;"></rect><path d="M69.15,118.61l-10.66,8.97s0,5.37,0,5.33,10.66-8.39,10.66-8.35,0-5.95,0-5.95Z" style="fill:#fff; opacity:.2;"></path></g><g><rect x="79.87" y="115.08" width="10.66" height="21.5" style="fill:#407BFF;"></rect><rect x="79.87" y="115.08" width="10.66" height="21.5" style="fill:#fff; opacity:.4;"></rect><path d="M90.54,118.61l-10.66,8.97s0,5.37,0,5.33,10.66-8.39,10.66-8.35,0-5.95,0-5.95Z" style="fill:#fff; opacity:.2;"></path></g><g><rect x="101.26" y="115.08" width="10.66" height="21.5" style="fill:#407BFF;"></rect><rect x="101.26" y="115.08" width="10.66" height="21.5" style="fill:#fff; opacity:.4;"></rect><path d="M111.92,118.61l-10.66,8.97s0,5.37,0,5.33,10.66-8.39,10.66-8.35,0-5.95,0-5.95Z" style="fill:#fff; opacity:.2;"></path></g><g><rect x="122.64" y="115.08" width="10.66" height="21.5" style="fill:#407BFF;"></rect><rect x="122.64" y="115.08" width="10.66" height="21.5" style="fill:#fff; opacity:.4;"></rect><path d="M133.3,118.61l-10.66,8.97s0,5.37,0,5.33,10.66-8.39,10.66-8.35,0-5.95,0-5.95Z" style="fill:#fff; opacity:.2;"></path></g><rect x="57.25" y="136.54" width="13.76" height="1.58" style="fill:#fff;"></rect><rect x="78.45" y="136.54" width="13.76" height="1.58" style="fill:#fff;"></rect><rect x="99.65" y="136.54" width="13.76" height="1.58" style="fill:#fff;"></rect><rect x="120.85" y="136.54" width="13.76" height="1.58" style="fill:#fff;"></rect><g><rect x="143.66" y="115.08" width="10.66" height="21.5" style="fill:#407BFF;"></rect><rect x="143.66" y="115.08" width="10.66" height="21.5" style="fill:#fff; opacity:.4;"></rect><path d="M154.32,118.61l-10.66,8.97s0,5.37,0,5.33,10.66-8.39,10.66-8.35,0-5.95,0-5.95Z" style="fill:#fff; opacity:.2;"></path></g><rect x="141.87" y="136.54" width="13.76" height="1.58" style="fill:#fff;"></rect><rect x="58.49" y="115.08" width="10.66" height="21.5" style="fill:#fff; opacity:.4;"></rect></g><g><g><rect x="58.49" y="150.42" width="10.66" height="21.5" style="fill:#407BFF;"></rect><path d="M69.15,153.95l-10.66,8.97s0,5.37,0,5.33,10.66-8.39,10.66-8.35,0-5.95,0-5.95Z" style="fill:#fff; opacity:.2;"></path></g><g><rect x="79.87" y="150.42" width="10.66" height="21.5" style="fill:#407BFF;"></rect><rect x="79.87" y="150.42" width="10.66" height="21.5" style="fill:#fff; opacity:.4;"></rect><path d="M90.54,153.95l-10.66,8.97s0,5.37,0,5.33,10.66-8.39,10.66-8.35,0-5.95,0-5.95Z" style="fill:#fff; opacity:.2;"></path></g><g><rect x="101.26" y="150.42" width="10.66" height="21.5" style="fill:#407BFF;"></rect><rect x="101.26" y="150.42" width="10.66" height="21.5" style="fill:#fff; opacity:.4;"></rect><path d="M111.92,153.95l-10.66,8.97s0,5.37,0,5.33,10.66-8.39,10.66-8.35,0-5.95,0-5.95Z" style="fill:#fff; opacity:.2;"></path></g><g><rect x="122.64" y="150.42" width="10.66" height="21.5" style="fill:#407BFF;"></rect><rect x="122.64" y="150.42" width="10.66" height="21.5" style="fill:#fff; opacity:.4;"></rect><path d="M133.3,153.95l-10.66,8.97s0,5.37,0,5.33,10.66-8.39,10.66-8.35,0-5.95,0-5.95Z" style="fill:#fff; opacity:.2;"></path></g><rect x="57.25" y="171.88" width="13.76" height="1.58" style="fill:#fff;"></rect><rect x="78.45" y="171.88" width="13.76" height="1.58" style="fill:#fff;"></rect><rect x="99.65" y="171.88" width="13.76" height="1.58" style="fill:#fff;"></rect><rect x="120.85" y="171.88" width="13.76" height="1.58" style="fill:#fff;"></rect><g><rect x="143.66" y="150.42" width="10.66" height="21.5" style="fill:#407BFF;"></rect><rect x="143.66" y="150.42" width="10.66" height="21.5" style="fill:#fff; opacity:.4;"></rect><path d="M154.32,153.95l-10.66,8.97s0,5.37,0,5.33,10.66-8.39,10.66-8.35,0-5.95,0-5.95Z" style="fill:#fff; opacity:.2;"></path></g><rect x="141.87" y="171.88" width="13.76" height="1.58" style="fill:#fff;"></rect><rect x="58.49" y="150.42" width="10.66" height="21.5" style="fill:#fff; opacity:.4;"></rect></g><g><g><rect x="58.49" y="193.76" width="10.66" height="21.5" style="fill:#407BFF;"></rect><path d="M69.15,197.29l-10.66,8.97s0,5.37,0,5.33,10.66-8.39,10.66-8.35,0-5.95,0-5.95Z" style="fill:#fff; opacity:.2;"></path></g><g><rect x="79.87" y="193.76" width="10.66" height="21.5" style="fill:#407BFF;"></rect><rect x="79.87" y="193.76" width="10.66" height="21.5" style="fill:#fff; opacity:.4;"></rect><path d="M90.54,197.29l-10.66,8.97s0,5.37,0,5.33,10.66-8.39,10.66-8.35,0-5.95,0-5.95Z" style="fill:#fff; opacity:.2;"></path></g><g><rect x="101.26" y="193.76" width="10.66" height="21.5" style="fill:#407BFF;"></rect><rect x="101.26" y="193.76" width="10.66" height="21.5" style="fill:#fff; opacity:.4;"></rect><path d="M111.92,197.29l-10.66,8.97s0,5.37,0,5.33,10.66-8.39,10.66-8.35,0-5.95,0-5.95Z" style="fill:#fff; opacity:.2;"></path></g><g><rect x="122.64" y="193.76" width="10.66" height="21.5" style="fill:#407BFF;"></rect><rect x="122.64" y="193.76" width="10.66" height="21.5" style="fill:#fff; opacity:.4;"></rect><path d="M133.3,197.29l-10.66,8.97s0,5.37,0,5.33,10.66-8.39,10.66-8.35,0-5.95,0-5.95Z" style="fill:#fff; opacity:.2;"></path></g><rect x="57.25" y="215.21" width="13.76" height="1.58" style="fill:#fff;"></rect><rect x="78.45" y="215.21" width="13.76" height="1.58" style="fill:#fff;"></rect><rect x="99.65" y="215.21" width="13.76" height="1.58" style="fill:#fff;"></rect><rect x="120.85" y="215.21" width="13.76" height="1.58" style="fill:#fff;"></rect><g><rect x="143.66" y="193.76" width="10.66" height="21.5" style="fill:#407BFF;"></rect><rect x="143.66" y="193.76" width="10.66" height="21.5" style="fill:#fff; opacity:.4;"></rect><path d="M154.32,197.29l-10.66,8.97s0,5.37,0,5.33,10.66-8.39,10.66-8.35,0-5.95,0-5.95Z" style="fill:#fff; opacity:.2;"></path></g><rect x="141.87" y="215.21" width="13.76" height="1.58" style="fill:#fff;"></rect><rect x="58.49" y="193.76" width="10.66" height="21.5" style="fill:#fff; opacity:.4;"></rect></g><polygon points="173.31 103.22 36.89 103.22 43.51 91.28 173.31 91.28 173.31 103.22" style="fill:#fff; opacity:.3;"></polygon><rect x="39.57" y="103.22" width="135.71" height="1.79" style="opacity:.2;"></rect></g><g><rect x="321.18" y="102.62" width="135.71" height="128.06" transform="translate(778.07 333.29) rotate(180)" style="fill:#263238;"></rect><rect x="321.18" y="102.62" width="135.71" height="128.06" transform="translate(778.07 333.29) rotate(180)" style="fill:#fff; opacity:.5;"></rect><polygon points="323.15 102.62 459.57 102.62 452.95 90.68 323.15 90.68 323.15 102.62" style="fill:#263238;"></polygon><rect x="323.15" y="180.77" width="133.74" height="1.59" rx=".76" ry=".76" transform="translate(780.04 363.14) rotate(180)" style="fill:#fff;"></rect><rect x="321.04" y="181.57" width="135.71" height="49.11" transform="translate(777.78 412.24) rotate(180)" style="fill:#fff; opacity:.3;"></rect><g><g><rect x="427.31" y="114.48" width="10.66" height="21.5" transform="translate(865.28 250.46) rotate(180)" style="fill:#407BFF;"></rect><path d="M427.31,118.01l10.66,8.97s0,5.37,0,5.33-10.66-8.39-10.66-8.35,0-5.95,0-5.95Z" style="fill:#fff; opacity:.2;"></path></g><g><rect x="405.93" y="114.48" width="10.66" height="21.5" transform="translate(822.51 250.46) rotate(180)" style="fill:#407BFF;"></rect><rect x="405.93" y="114.48" width="10.66" height="21.5" transform="translate(822.51 250.46) rotate(180)" style="fill:#fff; opacity:.4;"></rect><path d="M405.93,118.01l10.66,8.97s0,5.37,0,5.33-10.66-8.39-10.66-8.35,0-5.95,0-5.95Z" style="fill:#fff; opacity:.2;"></path></g><g><rect x="384.54" y="114.48" width="10.66" height="21.5" transform="translate(779.75 250.46) rotate(180)" style="fill:#407BFF;"></rect><rect x="384.54" y="114.48" width="10.66" height="21.5" transform="translate(779.75 250.46) rotate(180)" style="fill:#fff; opacity:.4;"></rect><path d="M384.54,118.01l10.66,8.97s0,5.37,0,5.33-10.66-8.39-10.66-8.35,0-5.95,0-5.95Z" style="fill:#fff; opacity:.2;"></path></g><g><rect x="363.16" y="114.48" width="10.66" height="21.5" transform="translate(736.99 250.46) rotate(180)" style="fill:#407BFF;"></rect><rect x="363.16" y="114.48" width="10.66" height="21.5" transform="translate(736.99 250.46) rotate(180)" style="fill:#fff; opacity:.4;"></rect><path d="M363.16,118.01l10.66,8.97s0,5.37,0,5.33-10.66-8.39-10.66-8.35,0-5.95,0-5.95Z" style="fill:#fff; opacity:.2;"></path></g><rect x="425.45" y="135.94" width="13.76" height="1.58" transform="translate(864.66 273.45) rotate(180)" style="fill:#fff;"></rect><rect x="404.25" y="135.94" width="13.76" height="1.58" transform="translate(822.26 273.45) rotate(180)" style="fill:#fff;"></rect><rect x="383.05" y="135.94" width="13.76" height="1.58" transform="translate(779.86 273.45) rotate(180)" style="fill:#fff;"></rect><rect x="361.85" y="135.94" width="13.76" height="1.58" transform="translate(737.46 273.45) rotate(180)" style="fill:#fff;"></rect><g><rect x="342.14" y="114.48" width="10.66" height="21.5" transform="translate(694.94 250.46) rotate(180)" style="fill:#407BFF;"></rect><rect x="342.14" y="114.48" width="10.66" height="21.5" transform="translate(694.94 250.46) rotate(180)" style="fill:#fff; opacity:.4;"></rect><path d="M342.14,118.01l10.66,8.97s0,5.37,0,5.33-10.66-8.39-10.66-8.35,0-5.95,0-5.95Z" style="fill:#fff; opacity:.2;"></path></g><rect x="340.83" y="135.94" width="13.76" height="1.58" transform="translate(695.42 273.45) rotate(180)" style="fill:#fff;"></rect><rect x="427.31" y="114.48" width="10.66" height="21.5" transform="translate(865.28 250.46) rotate(180)" style="fill:#fff; opacity:.4;"></rect></g><g><g><rect x="427.31" y="149.82" width="10.66" height="21.5" transform="translate(865.28 321.14) rotate(180)" style="fill:#407BFF;"></rect><path d="M427.31,153.35l10.66,8.97s0,5.37,0,5.33-10.66-8.39-10.66-8.35,0-5.95,0-5.95Z" style="fill:#fff; opacity:.2;"></path></g><g><rect x="405.93" y="149.82" width="10.66" height="21.5" transform="translate(822.51 321.14) rotate(180)" style="fill:#407BFF;"></rect><rect x="405.93" y="149.82" width="10.66" height="21.5" transform="translate(822.51 321.14) rotate(180)" style="fill:#fff; opacity:.4;"></rect><path d="M405.93,153.35l10.66,8.97s0,5.37,0,5.33-10.66-8.39-10.66-8.35,0-5.95,0-5.95Z" style="fill:#fff; opacity:.2;"></path></g><g><rect x="384.54" y="149.82" width="10.66" height="21.5" transform="translate(779.75 321.14) rotate(180)" style="fill:#407BFF;"></rect><rect x="384.54" y="149.82" width="10.66" height="21.5" transform="translate(779.75 321.14) rotate(180)" style="fill:#fff; opacity:.4;"></rect><path d="M384.54,153.35l10.66,8.97s0,5.37,0,5.33-10.66-8.39-10.66-8.35,0-5.95,0-5.95Z" style="fill:#fff; opacity:.2;"></path></g><g><rect x="363.16" y="149.82" width="10.66" height="21.5" transform="translate(736.99 321.14) rotate(180)" style="fill:#407BFF;"></rect><rect x="363.16" y="149.82" width="10.66" height="21.5" transform="translate(736.99 321.14) rotate(180)" style="fill:#fff; opacity:.4;"></rect><path d="M363.16,153.35l10.66,8.97s0,5.37,0,5.33-10.66-8.39-10.66-8.35,0-5.95,0-5.95Z" style="fill:#fff; opacity:.2;"></path></g><rect x="425.45" y="171.28" width="13.76" height="1.58" transform="translate(864.66 344.13) rotate(180)" style="fill:#fff;"></rect><rect x="404.25" y="171.28" width="13.76" height="1.58" transform="translate(822.26 344.13) rotate(180)" style="fill:#fff;"></rect><rect x="383.05" y="171.28" width="13.76" height="1.58" transform="translate(779.86 344.13) rotate(180)" style="fill:#fff;"></rect><rect x="361.85" y="171.28" width="13.76" height="1.58" transform="translate(737.46 344.13) rotate(180)" style="fill:#fff;"></rect><g><rect x="342.14" y="149.82" width="10.66" height="21.5" transform="translate(694.94 321.14) rotate(180)" style="fill:#407BFF;"></rect><rect x="342.14" y="149.82" width="10.66" height="21.5" transform="translate(694.94 321.14) rotate(180)" style="fill:#fff; opacity:.4;"></rect><path d="M342.14,153.35l10.66,8.97s0,5.37,0,5.33-10.66-8.39-10.66-8.35,0-5.95,0-5.95Z" style="fill:#fff; opacity:.2;"></path></g><rect x="340.83" y="171.28" width="13.76" height="1.58" transform="translate(695.42 344.13) rotate(180)" style="fill:#fff;"></rect><rect x="427.31" y="149.82" width="10.66" height="21.5" transform="translate(865.28 321.14) rotate(180)" style="fill:#fff; opacity:.4;"></rect></g><g><g><rect x="427.31" y="193.16" width="10.66" height="21.5" transform="translate(865.28 407.81) rotate(180)" style="fill:#407BFF;"></rect><path d="M427.31,196.69l10.66,8.97s0,5.37,0,5.33-10.66-8.39-10.66-8.35,0-5.95,0-5.95Z" style="fill:#fff; opacity:.2;"></path></g><g><rect x="405.93" y="193.16" width="10.66" height="21.5" transform="translate(822.51 407.81) rotate(180)" style="fill:#407BFF;"></rect><rect x="405.93" y="193.16" width="10.66" height="21.5" transform="translate(822.51 407.81) rotate(180)" style="fill:#fff; opacity:.4;"></rect><path d="M405.93,196.69l10.66,8.97s0,5.37,0,5.33-10.66-8.39-10.66-8.35,0-5.95,0-5.95Z" style="fill:#fff; opacity:.2;"></path></g><g><rect x="384.54" y="193.16" width="10.66" height="21.5" transform="translate(779.75 407.81) rotate(180)" style="fill:#407BFF;"></rect><rect x="384.54" y="193.16" width="10.66" height="21.5" transform="translate(779.75 407.81) rotate(180)" style="fill:#fff; opacity:.4;"></rect><path d="M384.54,196.69l10.66,8.97s0,5.37,0,5.33-10.66-8.39-10.66-8.35,0-5.95,0-5.95Z" style="fill:#fff; opacity:.2;"></path></g><g><rect x="363.16" y="193.16" width="10.66" height="21.5" transform="translate(736.99 407.81) rotate(180)" style="fill:#407BFF;"></rect><rect x="363.16" y="193.16" width="10.66" height="21.5" transform="translate(736.99 407.81) rotate(180)" style="fill:#fff; opacity:.4;"></rect><path d="M363.16,196.69l10.66,8.97s0,5.37,0,5.33-10.66-8.39-10.66-8.35,0-5.95,0-5.95Z" style="fill:#fff; opacity:.2;"></path></g><rect x="425.45" y="214.61" width="13.76" height="1.58" transform="translate(864.66 430.8) rotate(180)" style="fill:#fff;"></rect><rect x="404.25" y="214.61" width="13.76" height="1.58" transform="translate(822.26 430.8) rotate(180)" style="fill:#fff;"></rect><rect x="383.05" y="214.61" width="13.76" height="1.58" transform="translate(779.86 430.8) rotate(180)" style="fill:#fff;"></rect><rect x="361.85" y="214.61" width="13.76" height="1.58" transform="translate(737.46 430.8) rotate(180)" style="fill:#fff;"></rect><g><rect x="342.14" y="193.16" width="10.66" height="21.5" transform="translate(694.94 407.81) rotate(180)" style="fill:#407BFF;"></rect><rect x="342.14" y="193.16" width="10.66" height="21.5" transform="translate(694.94 407.81) rotate(180)" style="fill:#fff; opacity:.4;"></rect><path d="M342.14,196.69l10.66,8.97s0,5.37,0,5.33-10.66-8.39-10.66-8.35,0-5.95,0-5.95Z" style="fill:#fff; opacity:.2;"></path></g><rect x="340.83" y="214.61" width="13.76" height="1.58" transform="translate(695.42 430.8) rotate(180)" style="fill:#fff;"></rect><rect x="427.31" y="193.16" width="10.66" height="21.5" transform="translate(865.28 407.81) rotate(180)" style="fill:#fff; opacity:.4;"></rect></g><polygon points="323.15 102.62 459.57 102.62 452.95 90.68 323.15 90.68 323.15 102.62" style="fill:#fff; opacity:.3;"></polygon><rect x="321.18" y="102.62" width="135.71" height="1.79" transform="translate(778.07 207.03) rotate(180)" style="opacity:.2;"></rect></g><g><g><rect x="208.59" y="113.57" width="11.62" height="30.38" style="fill:#407BFF;"></rect><rect x="208.59" y="113.57" width="11.62" height="30.38" style="fill:#fff; opacity:.4;"></rect><path d="M220.21,118.57l-11.62,12.68s0,7.59,0,7.53,11.62-11.86,11.62-11.8,0-8.41,0-8.41Z" style="fill:#fff; opacity:.2;"></path></g><g><rect x="231.89" y="113.57" width="11.62" height="30.38" style="fill:#407BFF;"></rect><rect x="231.89" y="113.57" width="11.62" height="30.38" style="fill:#fff; opacity:.4;"></rect><path d="M243.51,118.57l-11.62,12.68s0,7.59,0,7.53,11.62-11.86,11.62-11.8,0-8.41,0-8.41Z" style="fill:#fff; opacity:.2;"></path></g><g><rect x="255.19" y="113.57" width="11.62" height="30.38" style="fill:#407BFF;"></rect><rect x="255.19" y="113.57" width="11.62" height="30.38" style="fill:#fff; opacity:.4;"></rect><path d="M266.81,118.57l-11.62,12.68s0,7.59,0,7.53,11.62-11.86,11.62-11.8,0-8.41,0-8.41Z" style="fill:#fff; opacity:.2;"></path></g><g><rect x="278.49" y="113.57" width="11.62" height="30.38" style="fill:#407BFF;"></rect><rect x="278.49" y="113.57" width="11.62" height="30.38" style="fill:#fff; opacity:.4;"></rect><path d="M290.11,118.57l-11.62,12.68s0,7.59,0,7.53,11.62-11.86,11.62-11.8,0-8.41,0-8.41Z" style="fill:#fff; opacity:.2;"></path></g><rect x="207.24" y="143.9" width="14.99" height="1.72" style="fill:#fff;"></rect><rect x="230.34" y="143.9" width="14.99" height="1.72" style="fill:#fff;"></rect><rect x="253.45" y="143.9" width="14.99" height="1.72" style="fill:#fff;"></rect><rect x="276.55" y="143.9" width="14.99" height="1.72" style="fill:#fff;"></rect></g><g><g><polygon points="169.24 93.26 169.24 88.4 194.66 88.4 194.66 93.26 189.86 96.19 173.31 96.19 169.24 93.26" style="fill:#263238;"></polygon><rect x="173.31" y="96.19" width="16.55" height="124.49" style="fill:#263238;"></rect></g><g style="opacity:.4;"><polygon points="169.24 93.26 169.24 88.4 194.66 88.4 194.66 93.26 189.86 96.19 173.31 96.19 169.24 93.26" style="fill:#fff;"></polygon><rect x="173.31" y="96.19" width="16.55" height="124.49" style="fill:#fff;"></rect></g><polygon points="169.24 93.26 194.66 93.26 189.86 96.19 173.31 96.19 169.24 93.26" style="opacity:.2;"></polygon><g><rect x="176.53" y="99.36" width="1.41" height="118.14" rx=".67" ry=".67" style="opacity:.2;"></rect><rect x="181.24" y="99.36" width="1.41" height="118.14" rx=".67" ry=".67" style="opacity:.2;"></rect><rect x="185.95" y="99.36" width="1.41" height="118.14" rx=".67" ry=".67" style="opacity:.2;"></rect></g></g><g><g><polygon points="303.62 93.26 303.62 88.4 329.04 88.4 329.04 93.26 324.24 96.19 307.69 96.19 303.62 93.26" style="fill:#263238;"></polygon><rect x="307.69" y="96.19" width="16.55" height="124.49" style="fill:#263238;"></rect></g><g style="opacity:.4;"><polygon points="303.62 93.26 303.62 88.4 329.04 88.4 329.04 93.26 324.24 96.19 307.69 96.19 303.62 93.26" style="fill:#fff;"></polygon><rect x="307.69" y="96.19" width="16.55" height="124.49" style="fill:#fff;"></rect></g><polygon points="303.62 93.26 329.04 93.26 324.24 96.19 307.69 96.19 303.62 93.26" style="opacity:.2;"></polygon><g><rect x="310.91" y="99.36" width="1.41" height="118.14" rx=".67" ry=".67" style="opacity:.2;"></rect><rect x="315.62" y="99.36" width="1.41" height="118.14" rx=".67" ry=".67" style="opacity:.2;"></rect><rect x="320.33" y="99.36" width="1.41" height="118.14" rx=".67" ry=".67" style="opacity:.2;"></rect></g></g><g><rect x="147.94" y="220.68" width="196.71" height="5.33" style="fill:#263238;"></rect><rect x="155.83" y="215.35" width="181.39" height="5.33" style="fill:#263238;"></rect><rect x="140.19" y="225.94" width="210.92" height="5.33" style="fill:#263238;"></rect></g><g><path d="M161.18,78.81c.87,0,88.75-42.06,88.75-42.06l88.17,42.06H161.18Z" style="fill:#263238;"></path><path d="M181.35,74.37c12.68-5.98,33.65-15.97,68.59-32.69l68.54,32.69H181.35Z" style="fill:#fff; opacity:.2;"></path><path d="M161.18,78.81c.87,0,88.75-42.06,88.75-42.06l88.17,42.06H161.18Z" style="fill:#fff; opacity:.3;"></path><g><polygon points="338.11 88.4 162.95 88.4 160.93 88.4 160.93 78.81 338.11 78.81 338.11 88.4" style="fill:#263238;"></polygon><polygon points="338.11 88.4 162.95 88.4 160.93 88.4 160.93 78.81 338.11 78.81 338.11 88.4" style="fill:#fff; opacity:.3;"></polygon></g><rect x="160.93" y="78.81" width="177.18" height="1.17" style="opacity:.2;"></rect><path d="M185.5,72.41c.76-.39,128.49-.17,128.49-.17l4.48,2.14H181.35l4.15-1.96Z" style="opacity:.2;"></path></g><g style="opacity:.3;"><rect x="147.94" y="220.68" width="196.71" height="5.33" style="fill:#fff;"></rect><rect x="155.83" y="215.35" width="181.39" height="5.33" style="fill:#fff;"></rect><rect x="140.19" y="225.94" width="210.92" height="5.33" style="fill:#fff;"></rect></g><rect x="155.83" y="219.46" width="181.39" height="1.22" style="opacity:.2;"></rect><rect x="147.94" y="224.73" width="196.71" height="1.22" style="opacity:.2;"></rect><rect x="140.25" y="230.07" width="210.86" height="1.22" style="opacity:.2;"></rect><g><rect x="209.09" y="179.2" width="83.54" height="36.13" style="fill:#263238;"></rect><rect x="209.09" y="179.2" width="83.54" height="36.13" style="fill:#fff; opacity:.5;"></rect><rect x="211.38" y="181.36" width="16.82" height="33.97" style="fill:#407BFF;"></rect><rect x="211.38" y="181.36" width="16.82" height="33.97" style="fill:#fff; opacity:.4;"></rect><rect x="273.27" y="181.36" width="17.48" height="33.97" style="fill:#407BFF;"></rect><rect x="230.44" y="181.36" width="19.08" height="33.97" style="fill:#407BFF;"></rect><rect x="230.44" y="181.36" width="19.08" height="33.97" style="fill:#fff; opacity:.4;"></rect><rect x="252.06" y="181.36" width="19.08" height="33.97" style="fill:#407BFF;"></rect><rect x="273.27" y="181.36" width="17.48" height="33.97" style="fill:#fff; opacity:.4;"></rect><rect x="252.06" y="181.36" width="19.08" height="33.97" style="fill:#fff; opacity:.4;"></rect><rect x="229.89" y="184.64" width="41.44" height="1.15" style="fill:#263238;"></rect><rect x="229.89" y="184.64" width="41.44" height="1.15" style="fill:#fff; opacity:.5;"></rect><path d="M228.2,184.64c0-.11-16.82,12.27-16.82,12.63v8.55l16.82-12.63v-8.54Z" style="fill:#fff; opacity:.2;"></path><polyline points="228.2 197.27 211.38 209.55 211.38 212.04 228.2 199.68 228.2 197.8" style="fill:#fff; opacity:.2;"></polyline><path d="M290.75,184.64c0-.11-17.48,12.27-17.48,12.63v8.55l17.48-12.63v-8.54Z" style="fill:#fff; opacity:.2;"></path><polyline points="290.75 197.27 273.27 209.55 273.27 212.04 290.75 199.68 290.75 197.8" style="fill:#fff; opacity:.2;"></polyline><polygon points="249.52 188.99 230.44 200.21 230.44 207.65 249.52 195.74 249.52 188.99" style="fill:#fff; opacity:.2;"></polygon><polygon points="271.14 193.84 252.06 206.04 252.06 213.48 271.14 201.56 271.14 193.84" style="fill:#fff; opacity:.2;"></polygon><g><rect x="246.56" y="196.65" width="2.95" height="9.17" style="fill:#263238;"></rect><rect x="246.56" y="196.65" width="2.95" height="9.17" style="fill:#fff; opacity:.7;"></rect></g><g><rect x="252.08" y="196.65" width="2.95" height="9.17" style="fill:#263238;"></rect><rect x="252.08" y="196.65" width="2.95" height="9.17" style="fill:#fff; opacity:.7;"></rect></g></g></g></g><g id="freepik--Trees--inject-67"><g id="freepik--freepik--tree-1--inject-2--inject-67"><path d="M103.7,192.43c-.51-.31-1.11-.46-1.71-.43-.37-.45-.07-1.12,.29-1.57s.79-.97,.66-1.54c-.21-.85-1.4-.88-2.25-.71-.32-.51-.31-1.15-.46-1.74s-.66-1.21-1.22-1.13c-.56,.08-.91,.7-1.46,.83-.64,.15-1.2-.42-1.7-.84-.06-.05-.13-.1-.2-.15h0c.11-1.76,1.78-1.48,3.21-1.72,1.12-.18-1.84-3.01,.41-3.92,.44-.12,.82-.39,1.09-.75,.23-.57,.03-1.23-.49-1.56-.51-.31-1.11-.46-1.71-.43-.37-.45-.07-1.12,.29-1.57s.79-.97,.66-1.54c-.21-.85-1.4-.88-2.25-.71-.32-.51-.31-1.15-.46-1.74s-.65-1.21-1.22-1.13c-.56,.08-.91,.7-1.46,.83-.64,.15-1.2-.42-1.7-.84-.5-.42-1.38-.69-1.73-.13-.21,.33-.08,.8-.3,1.13-.37,.56-1.26,.22-1.81-.19-.55-.41-1.44-.77-1.81-.21-.1,.18-.17,.38-.21,.59-.05,.15-.13,.28-.22,.41-.11-.39-.14-.82-.24-1.21-.15-.59-.65-1.21-1.22-1.13-.56,.08-.91,.71-1.46,.83-.64,.15-1.2-.42-1.7-.84-.5-.42-1.38-.69-1.73-.13-.21,.33-.08,.8-.3,1.13-.05,.07-.11,.14-.18,.18-.19-.04-.38-.04-.57-.04-.37-.44-.07-1.11,.29-1.57,.36-.46,.79-.98,.66-1.54-.21-.85-1.4-.88-2.25-.71-.32-.51-.31-1.15-.46-1.74s-.65-1.21-1.22-1.13c-.56,.09-.91,.71-1.46,.84-.64,.15-1.2-.41-1.7-.84-.5-.43-1.38-.69-1.73-.13-.21,.33-.08,.8-.3,1.13-.37,.56-1.26,.21-1.81-.19-.55-.41-1.44-.77-1.82-.21-.1,.19-.17,.38-.21,.59-.26,.75-1.07,1.13-1.71,1.61-.63,.48-1.13,1.44-.6,2.03,.26,.29,.73,.4,.86,.78,.16,.44-.31,.88-.68,1.2-.49,.55-.64,1.32-.38,2.01-.19,.17-.41,.3-.65,.38-.64,.15-1.2-.42-1.7-.84-.5-.42-1.38-.69-1.73-.13-.21,.33-.08,.8-.3,1.13-.37,.56-1.26,.22-1.81-.19-.55-.41-1.44-.77-1.82-.21-.1,.18-.17,.38-.21,.59-.26,.75-1.07,1.13-1.71,1.61s-1.13,1.44-.6,2.03c.25,.29,.69,.41,.84,.75-.44-.18-.95-.13-1.16,.2-.21,.33-.08,.8-.3,1.13-.37,.56-1.26,.22-1.81-.19-.55-.41-1.44-.77-1.81-.21-.1,.19-.17,.38-.21,.59-.26,.75-1.07,1.12-1.71,1.6-.63,.48-1.13,1.44-.6,2.03,.26,.29,.73,.4,.86,.78,.17,.44-.3,.88-.68,1.2-.62,.53-.74,2.11,.09,2.54,.35,.18,.86,.27,.94,.62,.08,.34-.27,.6-.5,.87-.05,.07-.1,.14-.14,.22-.43,.79-.15,1.78,.64,2.22,.2,.09,.44,.17,.51,.38,.03,.15,.01,.31-.05,.46-.08,.29-.11,.59-.08,.88,0,.1,.04,.2,.11,.27,.08,.05,.17,.08,.26,.08,1.19,.05,1.76-.37,2.48,.67,.06,.1,.15,.19,.25,.26,.1,.05,.21,.08,.33,.08,.82,.07,1.34-.44,2.09-.54,1.04-.13,1.26,.4,2.17,.83,1.43,.68,2.13,.26,2.4-.72,.07-.28,.11-.56,.13-.85,0-.43,.18-.84,.5-1.13h.02c.76,.06,1.28-.37,1.95-.51l.42-.05c.79,0,1.06,.47,1.88,.85,.38,.2,.8,.31,1.23,.33,.12,.44-.32,.84-.69,1.15-.62,.53-.73,2.11,.09,2.54,.34,.18,.86,.28,.94,.62,.08,.34-.27,.6-.5,.86-.05,.07-.1,.14-.14,.21-.44,.79-.15,1.78,.64,2.22,.2,.09,.44,.17,.51,.38,.03,.16,.02,.32-.05,.46-.08,.29-.11,.58-.08,.88,0,.1,.04,.2,.11,.28,.08,.05,.17,.08,.26,.07,1.19,.05,1.76-.37,2.48,.67,.06,.11,.15,.2,.25,.26,.1,.05,.21,.08,.33,.08,.82,.07,1.34-.44,2.09-.54,1.04-.13,1.26,.4,2.16,.83,1.44,.67,2.13,.26,2.4-.72,.07-.28,.11-.56,.13-.85,.11-1.76,1.78-1.48,3.21-1.72,.1,0,.19-.07,.23-.16h.09c.82,.07,1.34-.44,2.09-.54,1.04-.13,1.26,.4,2.17,.83,1.43,.68,2.13,.26,2.4-.72,.07-.28,.11-.56,.13-.85,.09-1.37,1.13-1.5,2.25-1.61,.04,.54,.35,1.03,.83,1.28,.2,.09,.44,.17,.51,.38,.03,.15,.01,.31-.05,.46-.08,.29-.11,.58-.08,.88,0,.1,.04,.2,.11,.28,.08,.05,.17,.08,.26,.08,1.19,.05,1.76-.37,2.48,.67,.06,.1,.15,.19,.25,.26,.1,.05,.21,.08,.33,.08,.82,.07,1.34-.44,2.09-.54,1.04-.13,1.26,.4,2.17,.83,1.43,.68,2.13,.26,2.4-.72,.07-.28,.11-.56,.13-.85,.11-1.76,1.78-1.48,3.21-1.72,1.12-.18-1.84-3.01,.41-3.92,.44-.12,.82-.39,1.09-.75,.21-.55,.02-1.16-.46-1.5Z" style="fill:#407BFF;"></path><path d="M62.19,202.93c-.43-.26-.92-.38-1.42-.36-.31-.37-.06-.93,.24-1.31,.29-.38,.66-.8,.54-1.28-.17-.71-1.16-.73-1.87-.59-.27-.43-.26-.96-.4-1.45-.14-.49-.52-.99-1.01-.93-.5,.06-.76,.59-1.22,.7-.53,.13-1-.35-1.42-.7-.42-.35-1.15-.58-1.44-.11-.17,.28-.07,.67-.25,.95-.31,.48-1.05,.18-1.51-.16s-1.19-.64-1.51-.18c-.08,.15-.14,.32-.18,.49-.21,.63-.89,.94-1.42,1.34s-.95,1.19-.5,1.69c.22,.24,.6,.34,.72,.65,.14,.4-.26,.73-.57,.99-.52,.44-.61,1.76,.07,2.12,.29,.15,.71,.2,.8,.52,.08,.32-.22,.51-.4,.72-.46,.59-.35,1.45,.24,1.91,.06,.04,.11,.08,.18,.12,.16,.08,.37,.14,.43,.32,.03,.13,.02,.27-.04,.4-.07,.24-.09,.49-.06,.73,0,.09,.03,.17,.09,.23,.06,.05,.14,.07,.22,.06,.99,.04,1.46-.31,2.07,.55,.05,.09,.12,.16,.21,.22,.09,.04,.18,.07,.27,.07,.68,.06,1.12-.37,1.75-.45,.86-.11,1.04,.33,1.8,.69,1.19,.56,1.78,.21,1.99-.6,.06-.23,.09-.47,.11-.7,.09-1.47,1.49-1.24,2.68-1.44,.93-.16-1.53-2.5,.34-3.26,.37-.1,.69-.32,.91-.63,.2-.48,.02-1.04-.42-1.31Z" style="fill:#407BFF;"></path><path d="M103.7,192.43c-.51-.31-1.11-.46-1.71-.43-.37-.45-.07-1.12,.29-1.57s.79-.97,.66-1.54c-.21-.85-1.4-.88-2.25-.71-.32-.51-.31-1.15-.46-1.74s-.66-1.21-1.22-1.13c-.56,.08-.91,.7-1.46,.83-.64,.15-1.2-.42-1.7-.84-.06-.05-.13-.1-.2-.15h0c.11-1.76,1.78-1.48,3.21-1.72,1.12-.18-1.84-3.01,.41-3.92,.44-.12,.82-.39,1.09-.75,.23-.57,.03-1.23-.49-1.56-.51-.31-1.11-.46-1.71-.43-.37-.45-.07-1.12,.29-1.57s.79-.97,.66-1.54c-.21-.85-1.4-.88-2.25-.71-.32-.51-.31-1.15-.46-1.74s-.65-1.21-1.22-1.13c-.56,.08-.91,.7-1.46,.83-.64,.15-1.2-.42-1.7-.84-.5-.42-1.38-.69-1.73-.13-.21,.33-.08,.8-.3,1.13-.37,.56-1.26,.22-1.81-.19-.55-.41-1.44-.77-1.81-.21-.1,.18-.17,.38-.21,.59-.05,.15-.13,.28-.22,.41-.11-.39-.14-.82-.24-1.21-.15-.59-.65-1.21-1.22-1.13-.56,.08-.91,.71-1.46,.83-.64,.15-1.2-.42-1.7-.84-.5-.42-1.38-.69-1.73-.13-.21,.33-.08,.8-.3,1.13-.05,.07-.11,.14-.18,.18-.19-.04-.38-.04-.57-.04-.37-.44-.07-1.11,.29-1.57,.36-.46,.79-.98,.66-1.54-.21-.85-1.4-.88-2.25-.71-.32-.51-.31-1.15-.46-1.74s-.65-1.21-1.22-1.13c-.56,.09-.91,.71-1.46,.84-.64,.15-1.2-.41-1.7-.84-.5-.43-1.38-.69-1.73-.13-.21,.33-.08,.8-.3,1.13-.37,.56-1.26,.21-1.81-.19-.55-.41-1.44-.77-1.82-.21-.1,.19-.17,.38-.21,.59-.26,.75-1.07,1.13-1.71,1.61-.63,.48-1.13,1.44-.6,2.03,.26,.29,.73,.4,.86,.78,.16,.44-.31,.88-.68,1.2-.49,.55-.64,1.32-.38,2.01-.19,.17-.41,.3-.65,.38-.64,.15-1.2-.42-1.7-.84-.5-.42-1.38-.69-1.73-.13-.21,.33-.08,.8-.3,1.13-.37,.56-1.26,.22-1.81-.19-.55-.41-1.44-.77-1.82-.21-.1,.18-.17,.38-.21,.59-.26,.75-1.07,1.13-1.71,1.61s-1.13,1.44-.6,2.03c.25,.29,.69,.41,.84,.75-.44-.18-.95-.13-1.16,.2-.21,.33-.08,.8-.3,1.13-.37,.56-1.26,.22-1.81-.19-.55-.41-1.44-.77-1.81-.21-.1,.19-.17,.38-.21,.59-.26,.75-1.07,1.12-1.71,1.6-.63,.48-1.13,1.44-.6,2.03,.26,.29,.73,.4,.86,.78,.17,.44-.3,.88-.68,1.2-.62,.53-.74,2.11,.09,2.54,.35,.18,.86,.27,.94,.62,.08,.34-.27,.6-.5,.87-.05,.07-.1,.14-.14,.22-.43,.79-.15,1.78,.64,2.22,.2,.09,.44,.17,.51,.38,.03,.15,.01,.31-.05,.46-.08,.29-.11,.59-.08,.88,0,.1,.04,.2,.11,.27,.08,.05,.17,.08,.26,.08,1.19,.05,1.76-.37,2.48,.67,.06,.1,.15,.19,.25,.26,.1,.05,.21,.08,.33,.08,.82,.07,1.34-.44,2.09-.54,1.04-.13,1.26,.4,2.17,.83,1.43,.68,2.13,.26,2.4-.72,.07-.28,.11-.56,.13-.85,0-.43,.18-.84,.5-1.13h.02c.76,.06,1.28-.37,1.95-.51l.42-.05c.79,0,1.06,.47,1.88,.85,.38,.2,.8,.31,1.23,.33,.12,.44-.32,.84-.69,1.15-.62,.53-.73,2.11,.09,2.54,.34,.18,.86,.28,.94,.62,.08,.34-.27,.6-.5,.86-.05,.07-.1,.14-.14,.21-.44,.79-.15,1.78,.64,2.22,.2,.09,.44,.17,.51,.38,.03,.16,.02,.32-.05,.46-.08,.29-.11,.58-.08,.88,0,.1,.04,.2,.11,.28,.08,.05,.17,.08,.26,.07,1.19,.05,1.76-.37,2.48,.67,.06,.11,.15,.2,.25,.26,.1,.05,.21,.08,.33,.08,.82,.07,1.34-.44,2.09-.54,1.04-.13,1.26,.4,2.16,.83,1.44,.67,2.13,.26,2.4-.72,.07-.28,.11-.56,.13-.85,.11-1.76,1.78-1.48,3.21-1.72,.1,0,.19-.07,.23-.16h.09c.82,.07,1.34-.44,2.09-.54,1.04-.13,1.26,.4,2.17,.83,1.43,.68,2.13,.26,2.4-.72,.07-.28,.11-.56,.13-.85,.09-1.37,1.13-1.5,2.25-1.61,.04,.54,.35,1.03,.83,1.28,.2,.09,.44,.17,.51,.38,.03,.15,.01,.31-.05,.46-.08,.29-.11,.58-.08,.88,0,.1,.04,.2,.11,.28,.08,.05,.17,.08,.26,.08,1.19,.05,1.76-.37,2.48,.67,.06,.1,.15,.19,.25,.26,.1,.05,.21,.08,.33,.08,.82,.07,1.34-.44,2.09-.54,1.04-.13,1.26,.4,2.17,.83,1.43,.68,2.13,.26,2.4-.72,.07-.28,.11-.56,.13-.85,.11-1.76,1.78-1.48,3.21-1.72,1.12-.18-1.84-3.01,.41-3.92,.44-.12,.82-.39,1.09-.75,.21-.55,.02-1.16-.46-1.5Z" style="opacity:.2;"></path><g style="opacity:.2;"><path d="M62.19,202.93c-.43-.26-.92-.38-1.42-.36-.31-.37-.06-.93,.24-1.31,.29-.38,.66-.8,.54-1.28-.17-.71-1.16-.73-1.87-.59-.27-.43-.26-.96-.4-1.45-.14-.49-.52-.99-1.01-.93-.5,.06-.76,.59-1.22,.7-.53,.13-1-.35-1.42-.7-.42-.35-1.15-.58-1.44-.11-.17,.28-.07,.67-.25,.95-.31,.48-1.05,.18-1.51-.16s-1.19-.64-1.51-.18c-.08,.15-.14,.32-.18,.49-.21,.63-.89,.94-1.42,1.34s-.95,1.19-.5,1.69c.22,.24,.6,.34,.72,.65,.14,.4-.26,.73-.57,.99-.52,.44-.61,1.76,.07,2.12,.29,.15,.71,.2,.8,.52,.08,.32-.22,.51-.4,.72-.46,.59-.35,1.45,.24,1.91,.06,.04,.11,.08,.18,.12,.16,.08,.37,.14,.43,.32,.03,.13,.02,.27-.04,.4-.07,.24-.09,.49-.06,.73,0,.09,.03,.17,.09,.23,.06,.05,.14,.07,.22,.06,.99,.04,1.46-.31,2.07,.55,.05,.09,.12,.16,.21,.22,.09,.04,.18,.07,.27,.07,.68,.06,1.12-.37,1.75-.45,.86-.11,1.04,.33,1.8,.69,1.19,.56,1.78,.21,1.99-.6,.06-.23,.09-.47,.11-.7,.09-1.47,1.49-1.24,2.68-1.44,.93-.16-1.53-2.5,.34-3.26,.37-.1,.69-.32,.91-.63,.2-.48,.02-1.04-.42-1.31Z"></path></g><path d="M80.38,194.82l1.53-4.86,2.98-3.84-.51-.43-2.81,3.07-.5-4.86h-.81s.67,5.77-.29,7.89c0,0-3.5,8.9-5.63,10.83-.12,.11-.23,.24-.31,.38-.64-1.64-1.47-3.19-2.47-4.64,.84-2.15,2.65-6.88,3.26-9.41,.48-1.97,.84-3.96,1.08-5.97l-.7-.08s-1.98,9.35-5.25,13.6c-.97-.89-2.07-1.63-3.26-2.19-.27-1.31-.38-3.6,.49-7.17l-.69-.18s-1.32,3.02-1.2,6.64c-.49-.25-.97-.53-1.42-.84-3.15-2.22-5.37-6.22-5.37-6.22l-.65,.63s2.69,5.91,6.44,7.88c3.75,1.97,6.18,6.78,6.37,8.04,.05,.36,.49,3.22-.11,8.22-3.99-1.7-11.9-6.39-12.42-6.82l-.92,1.24,12.79,9.15c.2,12.2-.7,15.71-.67,18.45h7.45c-.18-3.79-1.77-8.85-1.08-23.74,.06-.37,.12-.78,.18-1.27,.58-4.57,4.05-10.8,5.69-12.58,1.77-1.9,3.73-3.41,3.73-3.41l-.45-.97-4.47,3.44Z" style="fill:#263238;"></path></g><g id="freepik--freepik--tree-1--inject-2-2--inject-67"><path d="M465.29,192.43c-.51-.31-1.11-.46-1.71-.43-.37-.45-.07-1.12,.29-1.57s.79-.97,.66-1.54c-.21-.85-1.4-.88-2.25-.71-.32-.51-.31-1.15-.46-1.74s-.66-1.21-1.22-1.13c-.56,.08-.91,.7-1.46,.83-.64,.15-1.2-.42-1.7-.84-.06-.05-.13-.1-.2-.15h0c.11-1.76,1.78-1.48,3.21-1.72,1.12-.18-1.84-3.01,.41-3.92,.44-.12,.82-.39,1.09-.75,.23-.57,.03-1.23-.49-1.56-.51-.31-1.11-.46-1.71-.43-.37-.45-.07-1.12,.29-1.57s.79-.97,.66-1.54c-.21-.85-1.4-.88-2.25-.71-.32-.51-.31-1.15-.46-1.74-.15-.59-.65-1.21-1.22-1.13-.56,.08-.91,.7-1.46,.83-.64,.15-1.2-.42-1.7-.84-.5-.42-1.38-.69-1.73-.13-.21,.33-.08,.8-.3,1.13-.37,.56-1.26,.22-1.81-.19-.55-.41-1.44-.77-1.81-.21-.1,.18-.17,.38-.21,.59-.05,.15-.13,.28-.22,.41-.11-.39-.14-.82-.24-1.21-.15-.59-.65-1.21-1.22-1.13-.56,.08-.91,.71-1.46,.83-.64,.15-1.2-.42-1.7-.84-.5-.42-1.38-.69-1.73-.13-.21,.33-.08,.8-.3,1.13-.05,.07-.11,.14-.18,.18-.19-.04-.38-.04-.57-.04-.37-.44-.07-1.11,.29-1.57,.36-.46,.79-.98,.66-1.54-.21-.85-1.4-.88-2.25-.71-.32-.51-.31-1.15-.46-1.74s-.65-1.21-1.22-1.13c-.56,.09-.91,.71-1.46,.84-.64,.15-1.2-.41-1.7-.84-.5-.43-1.38-.69-1.73-.13-.21,.33-.08,.8-.3,1.13-.37,.56-1.26,.21-1.81-.19-.55-.41-1.44-.77-1.82-.21-.1,.19-.17,.38-.21,.59-.26,.75-1.07,1.13-1.71,1.61-.63,.48-1.13,1.44-.6,2.03,.26,.29,.73,.4,.86,.78,.16,.44-.31,.88-.68,1.2-.49,.55-.64,1.32-.38,2.01-.19,.17-.41,.3-.65,.38-.64,.15-1.2-.42-1.7-.84-.5-.42-1.38-.69-1.73-.13-.21,.33-.08,.8-.3,1.13-.37,.56-1.26,.22-1.81-.19-.55-.41-1.44-.77-1.82-.21-.1,.18-.17,.38-.21,.59-.26,.75-1.07,1.13-1.71,1.61-.63,.48-1.13,1.44-.6,2.03,.25,.29,.69,.41,.84,.75-.44-.18-.95-.13-1.16,.2-.21,.33-.08,.8-.3,1.13-.37,.56-1.26,.22-1.81-.19-.55-.41-1.44-.77-1.81-.21-.1,.19-.17,.38-.21,.59-.26,.75-1.07,1.12-1.71,1.6-.63,.48-1.13,1.44-.6,2.03,.26,.29,.73,.4,.86,.78,.17,.44-.3,.88-.68,1.2-.62,.53-.74,2.11,.09,2.54,.35,.18,.86,.27,.94,.62,.08,.34-.27,.6-.5,.87-.05,.07-.1,.14-.14,.22-.43,.79-.15,1.78,.64,2.22,.2,.09,.44,.17,.51,.38,.03,.15,.01,.31-.05,.46-.08,.29-.11,.59-.08,.88,0,.1,.04,.2,.11,.27,.08,.05,.17,.08,.26,.08,1.19,.05,1.76-.37,2.48,.67,.06,.1,.15,.19,.25,.26,.1,.05,.21,.08,.33,.08,.82,.07,1.34-.44,2.09-.54,1.04-.13,1.26,.4,2.17,.83,1.43,.68,2.13,.26,2.4-.72,.07-.28,.11-.56,.13-.85,0-.43,.18-.84,.5-1.13h.02c.76,.06,1.28-.37,1.95-.51l.42-.05c.79,0,1.06,.47,1.88,.85,.38,.2,.8,.31,1.22,.33,.12,.44-.32,.84-.69,1.15-.62,.53-.73,2.11,.09,2.54,.34,.18,.86,.28,.94,.62,.08,.34-.27,.6-.5,.86-.05,.07-.1,.14-.14,.21-.44,.79-.15,1.78,.64,2.22,.2,.09,.44,.17,.51,.38,.03,.16,.02,.32-.05,.46-.08,.29-.11,.58-.08,.88,0,.1,.04,.2,.11,.28,.08,.05,.17,.08,.26,.07,1.19,.05,1.76-.37,2.48,.67,.06,.11,.15,.2,.25,.26,.1,.05,.21,.08,.33,.08,.82,.07,1.34-.44,2.09-.54,1.04-.13,1.26,.4,2.16,.83,1.44,.67,2.13,.26,2.4-.72,.07-.28,.11-.56,.13-.85,.11-1.76,1.78-1.48,3.21-1.72,.1,0,.19-.07,.23-.16h.09c.82,.07,1.34-.44,2.09-.54,1.04-.13,1.26,.4,2.17,.83,1.43,.68,2.13,.26,2.4-.72,.07-.28,.11-.56,.13-.85,.09-1.37,1.13-1.5,2.25-1.61,.04,.54,.35,1.03,.83,1.28,.2,.09,.44,.17,.51,.38,.03,.15,.01,.31-.05,.46-.08,.29-.11,.58-.08,.88,0,.1,.04,.2,.11,.28,.08,.05,.17,.08,.26,.08,1.19,.05,1.76-.37,2.48,.67,.06,.1,.15,.19,.25,.26,.1,.05,.21,.08,.33,.08,.82,.07,1.34-.44,2.09-.54,1.04-.13,1.26,.4,2.17,.83,1.43,.68,2.13,.26,2.4-.72,.07-.28,.11-.56,.13-.85,.11-1.76,1.78-1.48,3.21-1.72,1.12-.18-1.84-3.01,.41-3.92,.44-.12,.82-.39,1.09-.75,.21-.55,.02-1.16-.46-1.5Z" style="fill:#407BFF;"></path><path d="M423.78,202.93c-.43-.26-.92-.38-1.42-.36-.31-.37-.06-.93,.24-1.31,.29-.38,.66-.8,.54-1.28-.17-.71-1.16-.73-1.87-.59-.27-.43-.26-.96-.4-1.45-.14-.49-.52-.99-1.01-.93-.5,.06-.76,.59-1.22,.7-.53,.13-1-.35-1.42-.7-.42-.35-1.15-.58-1.44-.11-.17,.28-.07,.67-.25,.95-.31,.48-1.05,.18-1.51-.16s-1.19-.64-1.51-.18c-.08,.15-.14,.32-.18,.49-.21,.63-.89,.94-1.42,1.34-.53,.4-.95,1.19-.5,1.69,.22,.24,.6,.34,.72,.65,.14,.4-.26,.73-.57,.99-.52,.44-.61,1.76,.07,2.12,.29,.15,.71,.2,.8,.52,.08,.32-.22,.51-.4,.72-.46,.59-.35,1.45,.24,1.91,.06,.04,.11,.08,.18,.12,.16,.08,.37,.14,.43,.32,.03,.13,.02,.27-.04,.4-.07,.24-.09,.49-.06,.73,0,.09,.03,.17,.09,.23,.06,.05,.14,.07,.22,.06,.99,.04,1.46-.31,2.07,.55,.05,.09,.12,.16,.21,.22,.09,.04,.18,.07,.27,.07,.68,.06,1.12-.37,1.75-.45,.86-.11,1.04,.33,1.8,.69,1.19,.56,1.78,.21,1.99-.6,.06-.23,.09-.47,.11-.7,.09-1.47,1.49-1.24,2.68-1.44,.93-.16-1.53-2.5,.34-3.26,.37-.1,.69-.32,.91-.63,.2-.48,.02-1.04-.42-1.31Z" style="fill:#407BFF;"></path><path d="M465.29,192.43c-.51-.31-1.11-.46-1.71-.43-.37-.45-.07-1.12,.29-1.57s.79-.97,.66-1.54c-.21-.85-1.4-.88-2.25-.71-.32-.51-.31-1.15-.46-1.74s-.66-1.21-1.22-1.13c-.56,.08-.91,.7-1.46,.83-.64,.15-1.2-.42-1.7-.84-.06-.05-.13-.1-.2-.15h0c.11-1.76,1.78-1.48,3.21-1.72,1.12-.18-1.84-3.01,.41-3.92,.44-.12,.82-.39,1.09-.75,.23-.57,.03-1.23-.49-1.56-.51-.31-1.11-.46-1.71-.43-.37-.45-.07-1.12,.29-1.57s.79-.97,.66-1.54c-.21-.85-1.4-.88-2.25-.71-.32-.51-.31-1.15-.46-1.74-.15-.59-.65-1.21-1.22-1.13-.56,.08-.91,.7-1.46,.83-.64,.15-1.2-.42-1.7-.84-.5-.42-1.38-.69-1.73-.13-.21,.33-.08,.8-.3,1.13-.37,.56-1.26,.22-1.81-.19-.55-.41-1.44-.77-1.81-.21-.1,.18-.17,.38-.21,.59-.05,.15-.13,.28-.22,.41-.11-.39-.14-.82-.24-1.21-.15-.59-.65-1.21-1.22-1.13-.56,.08-.91,.71-1.46,.83-.64,.15-1.2-.42-1.7-.84-.5-.42-1.38-.69-1.73-.13-.21,.33-.08,.8-.3,1.13-.05,.07-.11,.14-.18,.18-.19-.04-.38-.04-.57-.04-.37-.44-.07-1.11,.29-1.57,.36-.46,.79-.98,.66-1.54-.21-.85-1.4-.88-2.25-.71-.32-.51-.31-1.15-.46-1.74s-.65-1.21-1.22-1.13c-.56,.09-.91,.71-1.46,.84-.64,.15-1.2-.41-1.7-.84-.5-.43-1.38-.69-1.73-.13-.21,.33-.08,.8-.3,1.13-.37,.56-1.26,.21-1.81-.19-.55-.41-1.44-.77-1.82-.21-.1,.19-.17,.38-.21,.59-.26,.75-1.07,1.13-1.71,1.61-.63,.48-1.13,1.44-.6,2.03,.26,.29,.73,.4,.86,.78,.16,.44-.31,.88-.68,1.2-.49,.55-.64,1.32-.38,2.01-.19,.17-.41,.3-.65,.38-.64,.15-1.2-.42-1.7-.84-.5-.42-1.38-.69-1.73-.13-.21,.33-.08,.8-.3,1.13-.37,.56-1.26,.22-1.81-.19-.55-.41-1.44-.77-1.82-.21-.1,.18-.17,.38-.21,.59-.26,.75-1.07,1.13-1.71,1.61-.63,.48-1.13,1.44-.6,2.03,.25,.29,.69,.41,.84,.75-.44-.18-.95-.13-1.16,.2-.21,.33-.08,.8-.3,1.13-.37,.56-1.26,.22-1.81-.19-.55-.41-1.44-.77-1.81-.21-.1,.19-.17,.38-.21,.59-.26,.75-1.07,1.12-1.71,1.6-.63,.48-1.13,1.44-.6,2.03,.26,.29,.73,.4,.86,.78,.17,.44-.3,.88-.68,1.2-.62,.53-.74,2.11,.09,2.54,.35,.18,.86,.27,.94,.62,.08,.34-.27,.6-.5,.87-.05,.07-.1,.14-.14,.22-.43,.79-.15,1.78,.64,2.22,.2,.09,.44,.17,.51,.38,.03,.15,.01,.31-.05,.46-.08,.29-.11,.59-.08,.88,0,.1,.04,.2,.11,.27,.08,.05,.17,.08,.26,.08,1.19,.05,1.76-.37,2.48,.67,.06,.1,.15,.19,.25,.26,.1,.05,.21,.08,.33,.08,.82,.07,1.34-.44,2.09-.54,1.04-.13,1.26,.4,2.17,.83,1.43,.68,2.13,.26,2.4-.72,.07-.28,.11-.56,.13-.85,0-.43,.18-.84,.5-1.13h.02c.76,.06,1.28-.37,1.95-.51l.42-.05c.79,0,1.06,.47,1.88,.85,.38,.2,.8,.31,1.22,.33,.12,.44-.32,.84-.69,1.15-.62,.53-.73,2.11,.09,2.54,.34,.18,.86,.28,.94,.62,.08,.34-.27,.6-.5,.86-.05,.07-.1,.14-.14,.21-.44,.79-.15,1.78,.64,2.22,.2,.09,.44,.17,.51,.38,.03,.16,.02,.32-.05,.46-.08,.29-.11,.58-.08,.88,0,.1,.04,.2,.11,.28,.08,.05,.17,.08,.26,.07,1.19,.05,1.76-.37,2.48,.67,.06,.11,.15,.2,.25,.26,.1,.05,.21,.08,.33,.08,.82,.07,1.34-.44,2.09-.54,1.04-.13,1.26,.4,2.16,.83,1.44,.67,2.13,.26,2.4-.72,.07-.28,.11-.56,.13-.85,.11-1.76,1.78-1.48,3.21-1.72,.1,0,.19-.07,.23-.16h.09c.82,.07,1.34-.44,2.09-.54,1.04-.13,1.26,.4,2.17,.83,1.43,.68,2.13,.26,2.4-.72,.07-.28,.11-.56,.13-.85,.09-1.37,1.13-1.5,2.25-1.61,.04,.54,.35,1.03,.83,1.28,.2,.09,.44,.17,.51,.38,.03,.15,.01,.31-.05,.46-.08,.29-.11,.58-.08,.88,0,.1,.04,.2,.11,.28,.08,.05,.17,.08,.26,.08,1.19,.05,1.76-.37,2.48,.67,.06,.1,.15,.19,.25,.26,.1,.05,.21,.08,.33,.08,.82,.07,1.34-.44,2.09-.54,1.04-.13,1.26,.4,2.17,.83,1.43,.68,2.13,.26,2.4-.72,.07-.28,.11-.56,.13-.85,.11-1.76,1.78-1.48,3.21-1.72,1.12-.18-1.84-3.01,.41-3.92,.44-.12,.82-.39,1.09-.75,.21-.55,.02-1.16-.46-1.5Z" style="opacity:.2;"></path><g style="opacity:.2;"><path d="M423.78,202.93c-.43-.26-.92-.38-1.42-.36-.31-.37-.06-.93,.24-1.31,.29-.38,.66-.8,.54-1.28-.17-.71-1.16-.73-1.87-.59-.27-.43-.26-.96-.4-1.45-.14-.49-.52-.99-1.01-.93-.5,.06-.76,.59-1.22,.7-.53,.13-1-.35-1.42-.7-.42-.35-1.15-.58-1.44-.11-.17,.28-.07,.67-.25,.95-.31,.48-1.05,.18-1.51-.16s-1.19-.64-1.51-.18c-.08,.15-.14,.32-.18,.49-.21,.63-.89,.94-1.42,1.34-.53,.4-.95,1.19-.5,1.69,.22,.24,.6,.34,.72,.65,.14,.4-.26,.73-.57,.99-.52,.44-.61,1.76,.07,2.12,.29,.15,.71,.2,.8,.52,.08,.32-.22,.51-.4,.72-.46,.59-.35,1.45,.24,1.91,.06,.04,.11,.08,.18,.12,.16,.08,.37,.14,.43,.32,.03,.13,.02,.27-.04,.4-.07,.24-.09,.49-.06,.73,0,.09,.03,.17,.09,.23,.06,.05,.14,.07,.22,.06,.99,.04,1.46-.31,2.07,.55,.05,.09,.12,.16,.21,.22,.09,.04,.18,.07,.27,.07,.68,.06,1.12-.37,1.75-.45,.86-.11,1.04,.33,1.8,.69,1.19,.56,1.78,.21,1.99-.6,.06-.23,.09-.47,.11-.7,.09-1.47,1.49-1.24,2.68-1.44,.93-.16-1.53-2.5,.34-3.26,.37-.1,.69-.32,.91-.63,.2-.48,.02-1.04-.42-1.31Z"></path></g><path d="M441.97,194.82l1.53-4.86,2.98-3.84-.51-.43-2.81,3.07-.5-4.86h-.81s.67,5.77-.29,7.89c0,0-3.5,8.9-5.63,10.83-.12,.11-.23,.24-.31,.38-.64-1.64-1.47-3.19-2.47-4.64,.84-2.15,2.65-6.88,3.26-9.41,.48-1.97,.84-3.96,1.08-5.97l-.7-.08s-1.98,9.35-5.25,13.6c-.97-.89-2.07-1.63-3.26-2.19-.27-1.31-.38-3.6,.49-7.17l-.69-.18s-1.32,3.02-1.2,6.64c-.49-.25-.97-.53-1.42-.84-3.15-2.22-5.37-6.22-5.37-6.22l-.65,.63s2.69,5.91,6.44,7.88c3.75,1.97,6.18,6.78,6.37,8.04,.05,.36,.49,3.22-.11,8.22-3.99-1.7-11.9-6.39-12.42-6.82l-.92,1.24,12.79,9.15c.2,12.2-.7,15.71-.67,18.45h7.45c-.18-3.79-1.77-8.85-1.08-23.74,.06-.37,.12-.78,.18-1.27,.58-4.57,4.05-10.8,5.69-12.58,1.77-1.9,3.73-3.41,3.73-3.41l-.45-.97-4.47,3.44Z" style="fill:#263238;"></path></g><g><g><g><path d="M123.23,212.6c.74,12.05,4.71,56.69,4.71,56.69l-28.83,.27,8.12-80.64-12.94-3.94-2.72-7.84-10.92-6.18-5.34-8.2,2.06-.5,5.9,7.57,6.88,1.49-2.95-6.97h3.28l8.19,16.16,8.41,1.72,.77-29.39c8.44,3.94,11.14-2.62,11.14-2.62,0,0,2.18,46.02,3.41,49.5h0c1.07-.54,2.28-1.46,3.45-2.49,2.86-2.52,5.3-5.48,7.34-8.69l.55-.86h2.62l-13.13,24.94Z" style="fill:#263238;"></path><path d="M123.23,212.6c.74,12.05,4.71,56.69,4.71,56.69l-28.83,.27,8.12-80.64-12.94-3.94-2.72-7.84-10.92-6.18-5.34-8.2,2.06-.5,5.9,7.57,6.88,1.49-2.95-6.97h3.28l8.19,16.16,8.41,1.72,.77-29.39c8.44,3.94,11.14-2.62,11.14-2.62,0,0,2.18,46.02,3.41,49.5h0c1.07-.54,2.28-1.46,3.45-2.49,2.86-2.52,5.3-5.48,7.34-8.69l.55-.86h2.62l-13.13,24.94Z" style="fill:#fff;"></path></g><polygon points="108.66 229.68 106.07 269.5 110.64 269.45 110.64 238.03 108.66 229.68" style="fill:#263238; isolation:isolate;"></polygon><path d="M123.23,212.6l13.13-24.94h-2.62l-.55,.86c-2.04,3.22-4.48,6.18-7.34,8.69-1.17,1.03-2.38,1.96-3.45,2.49-1.23-3.48-3.41-49.5-3.41-49.5,0,0-1.18,2.87-4.43,3.68-.12,14.87-.25,29.73-.37,44.6-.93-2.12-1.74-4.14-1.82-6.35-.28,6.09-.65,12.64-.63,18.65l5.05,18.63,1.01,39.96,10.38-.1s-4.22-44.64-4.95-56.69Z" style="fill:#263238; isolation:isolate;"></path></g><path d="M155.68,134.71c4.21,1.5,7.1,5.95,6.97,10.41-.13,4.46-3.16,8.66-7.28,10.38-4.12,1.72-9.11,.99-12.7-1.67-.18,4.29-3.11,8.95-7.2,10.25-4.09,1.3-8.91-.22-11.53-3.61-11.02,6.92-49.61,9.49-56.39-20-1.4-6.09,1.99-12.54,6.96-16.33,4.97-3.78,11.29-5.33,17.49-6.09,5.88-9.37,18.93-14.49,29.9-13.02,10.97,1.47,20.72,9.77,23.92,20.36,11.18,.03,10.02,10.07,9.86,9.32Z" style="fill:#407BFF;"></path><path d="M142.06,192.72c-1.25,1.84-3.6,2.87-5.8,2.52-2.2-.35-4.13-2.04-4.75-4.18-2.61,1.84-6.65,1.38-9.29-.41-2.64-1.79-4.01-5.29-3.27-8.39,.74-3.11,3.52-5.62,6.69-6.04,.33-3.04,1.85-5.59,4.45-7.21,2.59-1.62,5.94-1.97,8.81-.93,3.4-.62,6.89,.6,9.37,3.01,1.77,1.72,2.95,4.15,2.74,6.61-.21,2.46-2,4.82-4.42,5.28,.81,1.84,1.04,3.9,.25,5.75-.78,1.85-2.89,3.29-4.78,3.99Z" style="fill:#407BFF;"></path><path d="M86.5,148.14c2.11-.73,4.61-.13,6.16,1.47,1.55,1.6,2.07,4.11,1.29,6.2,3.19,.1,6.15,2.89,7.19,5.91s.03,6.63-2.42,8.68c-2.45,2.04-6.19,2.38-8.97,.81-2.09,2.23-4.84,3.36-7.88,3.1-3.05-.26-5.93-1.99-7.61-4.55-3.1-1.54-5.15-4.62-5.69-8.03-.38-2.44,.14-5.09,1.78-6.93,1.64-1.84,4.49-2.65,6.71-1.57,.46-1.95,1.51-3.74,3.25-4.75,1.73-1.01,4.29-.89,6.21-.32Z" style="fill:#407BFF;"></path><g style="opacity:.2;"><path d="M142.06,192.72c-1.25,1.84-3.6,2.87-5.8,2.52-2.2-.35-4.13-2.04-4.75-4.18-2.61,1.84-6.65,1.38-9.29-.41-2.64-1.79-4.01-5.29-3.27-8.39,.74-3.11,3.52-5.62,6.69-6.04,.33-3.04,1.85-5.59,4.45-7.21,2.59-1.62,5.94-1.97,8.81-.93,3.4-.62,6.89,.6,9.37,3.01,1.77,1.72,2.95,4.15,2.74,6.61-.21,2.46-2,4.82-4.42,5.28,.81,1.84,1.04,3.9,.25,5.75-.78,1.85-2.89,3.29-4.78,3.99Z"></path></g></g><g><g><g><path d="M411.08,227.7c.63,10.25,4,48.22,4,48.22l-24.52,.23,6.91-68.59-11-3.35-2.31-6.67-9.29-5.26-4.54-6.97,1.76-.43,5.02,6.44,5.85,1.27-2.51-5.93h2.79l6.97,13.74,7.15,1.47,.65-25c7.18,3.36,9.48-2.23,9.48-2.23,0,0,1.86,39.15,2.9,42.1h0c.91-.46,1.94-1.24,2.93-2.12,2.43-2.14,4.51-4.66,6.25-7.4l.47-.73h2.23l-11.17,21.22Z" style="fill:#263238;"></path><g style="isolation:isolate; opacity:.1;"><path d="M411.08,227.7c.63,10.25,4,48.22,4,48.22l-24.52,.23,6.91-68.59-11-3.35-2.31-6.67-9.29-5.26-4.54-6.97,1.76-.43,5.02,6.44,5.85,1.27-2.51-5.93h2.79l6.97,13.74,7.15,1.47,.65-25c7.18,3.36,9.48-2.23,9.48-2.23,0,0,1.86,39.15,2.9,42.1h0c.91-.46,1.94-1.24,2.93-2.12,2.43-2.14,4.51-4.66,6.25-7.4l.47-.73h2.23l-11.17,21.22Z" style="fill:#fff;"></path></g></g><path d="M385.23,195.68l2.99,5.76,9.35,2.37s-.03-1.47-.18-3.36l-.04,1.41-7.15-1.47-6.97-13.74h-2.79l2.51,5.93-5.85-1.27-5.02-6.44-.24,.06,3.86,5.85,9.53,4.9Z" style="isolation:isolate; opacity:.1;"></path><polygon points="398.69 242.23 396.48 276.09 400.37 276.06 400.37 249.33 398.69 242.23" style="fill:#263238; isolation:isolate;"></polygon><path d="M411.08,227.7l11.17-21.22h-2.23l-.47,.73c-1.74,2.74-3.81,5.25-6.25,7.4-1,.88-2.03,1.66-2.93,2.12-1.04-2.96-2.9-42.1-2.9-42.1,0,0-1.01,2.45-3.77,3.13-.11,12.65-.21,25.29-.32,37.94-.79-1.81-1.48-3.52-1.55-5.4-.24,5.18-.55,10.75-.53,15.86l4.3,15.85,.86,33.99,8.83-.08s-3.59-37.97-4.21-48.22Z" style="fill:#263238; isolation:isolate;"></path></g><path d="M438.68,161.44c3.58,1.28,6.04,5.06,5.93,8.86-.11,3.8-2.69,7.36-6.19,8.83s-7.75,.84-10.8-1.42c-.16,3.65-2.65,7.61-6.13,8.72-3.48,1.1-7.58-.18-9.81-3.07-9.37,5.89-42.2,8.07-47.97-17.01-1.19-5.18,1.69-10.67,5.92-13.89,4.23-3.22,9.61-4.54,14.88-5.18,5.01-7.97,16.11-12.33,25.43-11.07,9.33,1.25,17.62,8.31,20.35,17.32,9.51,.03,8.52,8.57,8.38,7.93Z" style="fill:#407BFF;"></path><path d="M365.89,193.36c-1.93,1.73-4.89,2.21-7.27,1.19-2.38-1.02-4.08-3.48-4.17-6.07-3.47,1.33-7.9-.33-10.37-3.11-2.47-2.77-3.02-7.11-1.3-10.4,1.72-3.3,5.58-5.34,9.27-4.91,1.24-3.34,3.68-5.78,7.07-6.87,3.39-1.09,7.26-.53,10.21,1.46,4.02,.27,7.6,2.64,9.72,6.07,1.51,2.44,2.14,5.53,1.21,8.24-.93,2.71-3.63,4.87-6.49,4.7,.39,2.3,.06,4.7-1.35,6.56-1.41,1.86-4.2,2.88-6.52,3.14Z" style="fill:#407BFF;"></path><g style="opacity:.2;"><path d="M365.89,193.36c-1.93,1.73-4.89,2.21-7.27,1.19-2.38-1.02-4.08-3.48-4.17-6.07-3.47,1.33-7.9-.33-10.37-3.11-2.47-2.77-3.02-7.11-1.3-10.4,1.72-3.3,5.58-5.34,9.27-4.91,1.24-3.34,3.68-5.78,7.07-6.87,3.39-1.09,7.26-.53,10.21,1.46,4.02,.27,7.6,2.64,9.72,6.07,1.51,2.44,2.14,5.53,1.21,8.24-.93,2.71-3.63,4.87-6.49,4.7,.39,2.3,.06,4.7-1.35,6.56-1.41,1.86-4.2,2.88-6.52,3.14Z"></path></g><path d="M420.59,164.16c2.45-.84,5.36-.15,7.17,1.71,1.81,1.86,2.41,4.79,1.5,7.21,3.72,.11,7.15,3.36,8.36,6.87,1.21,3.51,.04,7.72-2.82,10.1-2.86,2.38-7.21,2.77-10.44,.94-2.43,2.6-5.63,3.91-9.18,3.6-3.54-.31-6.9-2.32-8.85-5.29-3.6-1.8-5.99-5.37-6.62-9.35-.45-2.83,.16-5.93,2.07-8.07,1.91-2.14,5.23-3.09,7.81-1.83,.53-2.27,1.76-4.35,3.78-5.53,2.02-1.17,4.99-1.04,7.23-.37Z" style="fill:#407BFF;"></path></g></g><g id="freepik--Plants--inject-67"><g><path d="M422.28,270.5c-.42-1.05-3.26,.93-3.26,.93,0,0,4.44-5.12,2.74-5.93-1.7-.81-4.13,4.21-4.13,4.21,0,0,4.11-10.32,1.52-10.55-2.59-.23-3.5,10.25-3.5,10.25,0,0,.08-7.71-1.6-6.97-1.68,.75-.52,7.77-.52,7.77,0,0-1.86-2.94-2.25-1.64-.39,1.3,3.88,7.15,3.88,7.15,2.85-1.33,7.55-4.18,7.13-5.23Z" style="fill:#407BFF;"></path><path d="M415.02,275.76l2.05-7.86-1.8,7.91c-.03,.16-.29,.11-.24-.06h0Z" style="fill:#263238;"></path></g><g><path d="M332.59,384.63c-.6-1.5-4.68,1.34-4.68,1.34,0,0,6.38-7.36,3.94-8.52-2.44-1.16-5.93,6.05-5.93,6.05,0,0,5.9-14.83,2.18-15.16-3.72-.33-5.03,14.73-5.03,14.73,0,0,.12-11.09-2.3-10.01-2.42,1.07-.75,11.16-.75,11.16,0,0-2.67-4.22-3.24-2.36-.57,1.87,5.57,10.28,5.57,10.28,4.09-1.91,10.85-6.01,10.25-7.52Z" style="fill:#407BFF;"></path><path d="M322.2,392.21l2.89-11.31-2.64,11.36c-.03,.16-.29,.11-.24-.06h0Z" style="fill:#263238;"></path></g><g><path d="M65.19,438.84c-1.55-.8-2.86,4.39-2.86,4.39,0,0,0-10.48-2.81-9.7-2.8,.77-.55,9.1-.55,9.1,0,0-5.65-16.21-8.91-13.86-3.26,2.35,6.29,15.52,6.29,15.52,0,0-7.71-9.09-8.92-6.52-1.21,2.57,7.25,9.6,7.25,9.6,0,0-5.15-1.55-4.29,.37,.86,1.92,11.77,4.43,11.77,4.43,1.98-4.43,4.58-12.53,3.03-13.33Z" style="fill:#407BFF;"></path><path d="M62.09,452.31l-5.63-11.22,5.85,11.1c.08,.14-.15,.27-.22,.12h0Z" style="fill:#263238;"></path></g></g><g id="freepik--Speech_Bubble_2--inject-67"><g><g><path d="M363.19,310.37c-1.87,8.82,3.77,17.48,12.58,19.35,6.81,1.44,13.51-1.6,17.07-7.11l4.84-.75-2.64-4.46c.02-.09,.05-.17,.07-.26,1.87-8.82-3.77-17.48-12.58-19.35-8.82-1.87-17.48,3.77-19.35,12.58Z" style="fill:#407BFF;"></path><path d="M363.19,310.37c-1.87,8.82,3.77,17.48,12.58,19.35,6.81,1.44,13.51-1.6,17.07-7.11l4.84-.75-2.64-4.46c.02-.09,.05-.17,.07-.26,1.87-8.82-3.77-17.48-12.58-19.35-8.82-1.87-17.48,3.77-19.35,12.58Z" style="fill:#fff; opacity:.7;"></path></g><path d="M383.55,313.78c0,1.21,.98,2.19,2.19,2.19s2.19-.98,2.19-2.19-.98-2.19-2.19-2.19-2.19,.98-2.19,2.19Z" style="fill:#407BFF;"></path><path d="M376.84,313.78c0,1.21,.98,2.19,2.19,2.19s2.19-.98,2.19-2.19-.98-2.19-2.19-2.19-2.19,.98-2.19,2.19Z" style="fill:#407BFF;"></path><path d="M370.14,313.78c0,1.21,.98,2.19,2.19,2.19s2.19-.98,2.19-2.19-.98-2.19-2.19-2.19-2.19,.98-2.19,2.19Z" style="fill:#407BFF;"></path></g></g><g id="freepik--Speech_Bubble_1--inject-67"><g><g><path d="M152.61,301.71c1.87,8.82-3.77,17.48-12.58,19.35-6.81,1.44-13.51-1.6-17.07-7.11l-4.84-.75,2.64-4.46c-.02-.09-.05-.17-.07-.26-1.87-8.82,3.77-17.48,12.58-19.35,8.82-1.87,17.48,3.77,19.35,12.58Z" style="fill:#407BFF;"></path><path d="M152.61,301.71c1.87,8.82-3.77,17.48-12.58,19.35-6.81,1.44-13.51-1.6-17.07-7.11l-4.84-.75,2.64-4.46c-.02-.09-.05-.17-.07-.26-1.87-8.82,3.77-17.48,12.58-19.35,8.82-1.87,17.48,3.77,19.35,12.58Z" style="fill:#fff; opacity:.7;"></path><path d="M154.3,300.8c-.12,0-.23-.09-.25-.21-.88-5.13-4.55-9.74-9.35-11.75-.13-.05-.19-.2-.13-.33,.05-.13,.2-.19,.33-.13,4.95,2.08,8.74,6.84,9.65,12.13,.02,.14-.07,.27-.2,.29-.01,0-.03,0-.04,0Zm-11.56-12.94c.06-.12,.01-.27-.11-.34-.75-.38-1.59-.61-2.43-.66-.14,0-.26,.1-.26,.24s.1,.26,.23,.26c.77,.04,1.54,.25,2.23,.61,.04,.02,.08,.03,.11,.03,.09,0,.18-.05,.22-.14Z" style="fill:#407BFF;"></path><path d="M154.3,300.8c-.12,0-.23-.09-.25-.21-.88-5.13-4.55-9.74-9.35-11.75-.13-.05-.19-.2-.13-.33,.05-.13,.2-.19,.33-.13,4.95,2.08,8.74,6.84,9.65,12.13,.02,.14-.07,.27-.2,.29-.01,0-.03,0-.04,0Zm-11.56-12.94c.06-.12,.01-.27-.11-.34-.75-.38-1.59-.61-2.43-.66-.14,0-.26,.1-.26,.24s.1,.26,.23,.26c.77,.04,1.54,.25,2.23,.61,.04,.02,.08,.03,.11,.03,.09,0,.18-.05,.22-.14Z" style="fill:#fff; opacity:.7;"></path></g><path d="M132.25,305.13c0,1.21-.98,2.19-2.19,2.19s-2.19-.98-2.19-2.19,.98-2.19,2.19-2.19,2.19,.98,2.19,2.19Z" style="fill:#407BFF;"></path><path d="M138.96,305.13c0,1.21-.98,2.19-2.19,2.19s-2.19-.98-2.19-2.19,.98-2.19,2.19-2.19,2.19,.98,2.19,2.19Z" style="fill:#407BFF;"></path><path d="M145.67,305.13c0,1.21-.98,2.19-2.19,2.19s-2.19-.98-2.19-2.19,.98-2.19,2.19-2.19,2.19,.98,2.19,2.19Z" style="fill:#407BFF;"></path></g></g></svg>
