<svg xmlns="http://www.w3.org/2000/svg" viewBox="0 0 180.01 163.47"><defs><style>.cls-1{fill:#fff;}.cls-2{fill:#1a1a1a;}.cls-3{fill:#295fff;}</style></defs><g id="Layer_2" data-name="Layer 2"><g id="_Layer_" data-name="&lt;Layer&gt;"><rect class="cls-1" x="108.06" y="37.38" width="71.68" height="47.04" rx="6.11"></rect><path class="cls-2" d="M173.27,37.38H114.53a6.49,6.49,0,0,0-6.47,6.47c0,.4,71.68.4,71.68.4A6.58,6.58,0,0,0,173.27,37.38Z"></path><rect class="cls-2" x="133.6" y="124.14" width="45.92" height="33.42" rx="6.85"></rect><path class="cls-3" d="M131.55,96.46,129.08,104s-2.27-7.61-8.69-10.08-9.94-1.74-9.94-1.74,1.91-1.31,1.66-3-3-3-3-3l-10.51.38s-2.46.92-2.62,2.76a3.29,3.29,0,0,0,1.31,2.84s-5.64-.29-8.91,1.21S80.57,96.66,78.14,104a63.09,63.09,0,0,0-2.66,15.61l-11,2.8s-3.12,1.89-2.64,3.08l2.25,12.45s2.41,10.42,10.13,10.42,9.71-5.7,9.71-5.7S81.72,159,80,163.2h47.55A190.61,190.61,0,0,1,123,138.89s-1.07-8.39-.56-11.71c0,0,1,9,7.42,10.52s10.31-2.09,12.55-7.41,3.58-15,4-17.91S148.49,99,148.49,99s.31-2.2-7.56-3.33S132.18,94.77,131.55,96.46Z"></path><rect class="cls-1" x="36.75" y="79.97" width="56.87" height="39.56" rx="6.11"></rect><path class="cls-3" d="M78.26,39A13.76,13.76,0,1,1,64.5,25.27,13.76,13.76,0,0,1,78.26,39Z"></path><path class="cls-2" d="M95.06,76.32S93,68.15,96.87,67a11.69,11.69,0,0,1,3.06-2.36s-3.68-4.51-2.77-7,3.5-3.08,6.63-3.11,6.58.92,6.78,3.33-2.94,6.67-2.94,6.67,4.59,1.18,4.8,5a26.74,26.74,0,0,1-.31,6.36l-1.07.78-15.23.93Z"></path><path class="cls-1" d="M110.86,81.82s4.21,1.29,4.29-2.68c0,0-.29-3.35-3.9-2.41l-.2-.79a9.49,9.49,0,0,1-6.57-2A63.28,63.28,0,0,1,99,69.7a52.1,52.1,0,0,1-2.43,5.16V76.8s-3.41-1.06-4,2.34c0,0,0,2.71,2.18,2.92s2.07-.41,2.07-.41.5,4.19,2.84,5.4l-.23,3.07a6.2,6.2,0,0,0,4.78,1.14c3.13-.38,4.1-1.21,4.1-1.21l-.17-3A7.58,7.58,0,0,0,110.86,81.82Z"></path><path class="cls-1" d="M134.43,98.52s1.8-4.07,1.61-5-2-3-2.88-3.69a1.74,1.74,0,0,1,0-2.75c.9-.51,2.32,0,3.68,1.18s3,3,3.66,3c0,0,4.68-3.53,6.67-4s2.92-.62,3.43.2c0,0,1.65.09,2,1.26,0,0,1.42-.29,1.92.57s-.18,2.52-1.83,3.67a22.32,22.32,0,0,1-6,3.1c-1.84.48-2.57,4.6-2.57,4.6S138,100.41,134.43,98.52Z"></path><path class="cls-1" d="M75.29,123.56l-1.19-4.37s1.8-2.19.76-6.51S71,109.26,71,109.26a57.9,57.9,0,0,1-2.27-6.56c-.52-2.28-2-5-3.86-4.66s-2.17,3.41-1.6,5.78S65,109.65,65,109.65s-2.15-1.86-3-1.8a3.94,3.94,0,0,0-2.89,1.75,9.19,9.19,0,0,0-.59,2,3.3,3.3,0,0,0-1.66,2.5c0,1.62,1.08,3.34,5.35,5.94a3.77,3.77,0,0,0,3,2.47l.63,3.83a23.83,23.83,0,0,0,5-1C73.15,124.55,75.29,123.56,75.29,123.56Z"></path><path class="cls-3" d="M175.48,85.22,162.8,77.37a.79.79,0,0,0-1.2.71l.73,14.9a.78.78,0,0,0,1.18.63l3.43-2a.79.79,0,0,1,1.08.28l5,8.46a.79.79,0,0,0,1.08.27l2.71-1.6a.78.78,0,0,0,.28-1.07l-5-8.46a.78.78,0,0,1,.28-1.07l3.11-1.84A.78.78,0,0,0,175.48,85.22Z"></path><path class="cls-2" d="M63.58,54.33v5.4s.48,2.7,4,2.7S71.86,60,71.86,60L72,54.33A12.39,12.39,0,0,1,63.58,54.33Z"></path><circle class="cls-3" cx="65.18" cy="95.88" r="5.64"></circle><path class="cls-3" d="M176,40.75a2,2,0,1,1-2-2A2,2,0,0,1,176,40.75Z"></path><path class="cls-1" d="M170.08,40.75a2,2,0,1,1-2-2A2,2,0,0,1,170.08,40.75Z"></path><path class="cls-1" d="M164.13,40.75a2,2,0,1,1-2-2A2,2,0,0,1,164.13,40.75Z"></path><path class="cls-2" d="M64.21,122.39l1,.22.93,3.84s-4,.12-4.28-1S64.21,122.39,64.21,122.39Z"></path><path class="cls-2" d="M74.34,119.9l1,3.66s3.62-1.88,2.78-3.28S74.34,119.9,74.34,119.9Z"></path><path class="cls-2" d="M135.54,95.05s-.55,3.1-1.11,3.47-3.18-1.19-2.73-2.46S135.54,95.05,135.54,95.05Z"></path><path class="cls-2" d="M145.51,96.65s-1.36,2.78-1.23,3.91c0,0,4,0,4.21-1.53C148.67,97.8,145.51,96.65,145.51,96.65Z"></path><path class="cls-2" d="M48.86,89.62a2.29,2.29,0,1,1-2.29-2.28A2.29,2.29,0,0,1,48.86,89.62Z"></path><circle class="cls-2" cx="88.78" cy="100.33" r="2.29"></circle><rect class="cls-3" x="117.02" y="50" width="11.13" height="11.13"></rect><path class="cls-1" d="M112.12,76a26.74,26.74,0,0,0,.31-6.36c-.21-3.83-4.8-5-4.8-5s3.14-4.25,2.94-6.67c-.17-2-2.66-3-5.32-3.27,1.41,1.6,4.24,5.73-.14,9.52a6,6,0,0,1,3.57,6.44c-.65,4.77-7.76,1-7.76,1l4.16,5.47,6-.36Z"></path><path class="cls-1" d="M147.66,148.77c-.2-.08-7.46-7.76-7.46-7.76,0-.38,7.27-7.64,7.27-7.64.38.38-6.7,7.46-6.7,7.46l7.08,7.49C147.79,148.75,147.72,148.77,147.66,148.77Z"></path><path class="cls-2" d="M134.38,98.9c.59-2.19,1.75-5.33,1.3-6a8.28,8.28,0,0,0-1.87-2.06c-.24-.21-.48-.41-.69-.63-1.31-1.28-1-2.26-.81-2.63a2,2,0,0,1,2.18-.86c1.62.33,3.58,2.26,5.16,3.8,1,1,4.29,1,5.46,1a.26.26,0,0,1,.29.25c-.44.3-4.72.56-6-.68-1.58-1.55-3.56-3.49-5-3.79a1.44,1.44,0,0,0-1.59.58c-.29.55,0,1.28.7,2,.21.2.44.4.67.6a9,9,0,0,1,2,2.18c.73,1.17-1.13,5.35-1.51,6.17A.28.28,0,0,1,134.38,98.9Z"></path><path class="cls-2" d="M144.14,100.89a.29.29,0,0,1-.27-.31c0-.18.69-4.33,2.77-4.82s7.27-3,7.82-5.62a.88.88,0,0,0-.25-.88,1.56,1.56,0,0,0-1.5-.22A58,58,0,0,0,147.05,92c-.21,0-4.65-.5-6.62,1.64,1.62-2.56,5.74-2.23,6.43-2.15a53.21,53.21,0,0,1,5.7-3,2,2,0,0,1,2,.34,1.4,1.4,0,0,1,.42,1.38c-.65,3-6.46,5.62-8.22,6-1.44.34-2.2,3.28-2.36,4.38A.28.28,0,0,1,144.14,100.89Z"></path><path class="cls-2" d="M143,92c.58-.94,6.94-4.86,8.23-4.69a1.83,1.83,0,0,1,1.65,1.46c-.54,0-.71-.81-1.71-.92-.85-.1-5.37,2.47-8,4.11A.27.27,0,0,1,143,92Z"></path><path class="cls-2" d="M140.36,91.53c0-.57,2.61-2.3,3.23-2.64.31-.16.66-.37,1-.6,1.34-.8,3-1.78,4.23-1.85,1.68-.1,2,1,2,1-.53.11-.77-.56-2-.49s-2.76,1-4,1.77l-1.07.62c-.61.32-3.31,2.1-3.34,2.11A.3.3,0,0,1,140.36,91.53Z"></path><path class="cls-2" d="M175.34,163.47H36.75c0-.54,138.59-.54,138.59-.54C175.61,163.35,175.49,163.47,175.34,163.47Z"></path><path class="cls-2" d="M100,76.74c.22,0,.36.05.43.83s-.16,1-.35,1-.39-.27-.38-.89S99.74,76.78,100,76.74Z"></path><path class="cls-2" d="M107.41,76.81c.22,0,.36.06.4.84s-.18,1-.37,1-.38-.28-.36-.9S107.13,76.84,107.41,76.81Z"></path><path class="cls-2" d="M95.3,82.4A3.15,3.15,0,0,1,93,81.35,3.06,3.06,0,0,1,93.26,77a3,3,0,0,1,2.23-.77,3.06,3.06,0,0,1,1,.22,1.06,1.06,0,0,1-1,.32,2.59,2.59,0,0,0-1.84.63,2.54,2.54,0,0,0,1.53,4.44,2.62,2.62,0,0,0,1.32-.28A1,1,0,0,1,95.3,82.4Z"></path><path class="cls-2" d="M94.68,81c-.17-.48,1.45-1.73,1.45-1.73l-1.81-1.34c.32-.43,2.41,1.12,2.41,1.12,0,.43-1.89,1.89-1.89,1.89A.27.27,0,0,1,94.68,81Z"></path><path class="cls-2" d="M112.35,82.4a3,3,0,0,1-1.42-.35,4,4,0,0,1,1.58-.2A2.54,2.54,0,0,0,114,77.41a2.59,2.59,0,0,0-1.84-.63,2.35,2.35,0,0,0-.83.2c.1-.64.44-.72.79-.74a3.08,3.08,0,1,1,.39,6.15Z"></path><path class="cls-2" d="M113,81c-.17-.06-2.07-1.52-2.07-1.52,0-.43,2.1-2,2.1-2,.33.43-1.48,1.77-1.48,1.77l1.61,1.25C113.13,81,113.05,81,113,81Z"></path><path class="cls-2" d="M132.66,138.37l-.89,0c-4.63-.36-9.54-4-9.45-13,.45,8.65,5.11,12.1,9.5,12.44l.82,0c9.14,0,11.31-12.45,12-16.62,1.09-6.26,3.53-21.89,3.55-22,.51.24-1.92,15.87-3,22.14C144.46,125.59,142.24,138.37,132.66,138.37Z"></path><path class="cls-2" d="M125.42,121.68a.27.27,0,0,1-.27-.29,73.27,73.27,0,0,1,1.58-9.59A132,132,0,0,1,131.45,96c.47.26-2.1,7-4.19,16a70.8,70.8,0,0,0-1.57,9.52A.26.26,0,0,1,125.42,121.68Z"></path><path class="cls-2" d="M103.82,88.44A7.77,7.77,0,0,1,99,87a7.47,7.47,0,0,1-2.41-4.64,57.8,57.8,0,0,1-.32-7.46c.42-.26.54-.14.54,0a58.08,58.08,0,0,0,.31,7.35,7,7,0,0,0,2.21,4.32,7.28,7.28,0,0,0,4.5,1.37C104.09,88.32,104,88.44,103.82,88.44Z"></path><path class="cls-2" d="M103.82,88.44c1.27-.54,3.07-.78,4.5-1.91a7,7,0,0,0,2.21-4.32A43.14,43.14,0,0,0,110.8,76c.56,1.26.55,4.89.26,6.36A7.47,7.47,0,0,1,108.65,87,7.77,7.77,0,0,1,103.82,88.44Z"></path><path class="cls-2" d="M110.71,76.22c-5.13,0-10.39-4.81-11.74-6.13-.34,1.08-1.28,3.86-2.24,5,.7-1.61,1.85-5.49,1.86-5.53.51-.05,6.8,6.41,12.45,6.16C111,76.22,110.83,76.22,110.71,76.22Z"></path><path class="cls-2" d="M99.39,90.22a.29.29,0,0,1-.27-.3c.15-1.5.19-2.86.19-2.88.54,0,.5,1.41.35,2.93A.27.27,0,0,1,99.39,90.22Z"></path><path class="cls-2" d="M108.23,90.09a17,17,0,0,1-.44-3c.54,0,.58,1.28.71,2.73C108.25,90.09,108.24,90.09,108.23,90.09Z"></path><path class="cls-2" d="M95.12,76.78c-.33-.42-1.93-5.73-.29-8.51a3.15,3.15,0,0,1,2.07-1.54,7.37,7.37,0,0,1,4.45-2.79c3.71-.65,9.58.27,11,4.35.65,1.83.65,3.93,0,8,.09-4.06.09-6.08-.52-7.82-1.33-3.78-6.89-4.62-10.41-4a7,7,0,0,0-4.17,2.65,3.07,3.07,0,0,0-2,1.42c-1.52,2.58.07,7.83.08,7.89C95.17,76.77,95.14,76.78,95.12,76.78Z"></path><path class="cls-2" d="M80,163.47c1.12-3.14,6.38-30.59,4.64-38.46-1.76-8,1.07-16,1.1-16.09.48.27-2.3,8.11-.57,16s-3.56,35.64-4.93,38.42A.25.25,0,0,1,80,163.47Z"></path><path class="cls-2" d="M127.53,163.47c-1.61-2.93-6.92-30.63-5.17-38.57s-1-15.71-1.08-15.79c.54-.11,3.38,7.88,1.61,15.9-1.73,7.87,3.52,35.32,4.88,38.07C127.61,163.46,127.57,163.47,127.53,163.47Z"></path><path class="cls-2" d="M144.09,100.87a25.62,25.62,0,0,1-4.51-.44c-3.92-.71-7.31-2.16-8-3.45a1,1,0,0,1-.12-.9c.54-1.46,2.65-1.46,4.33-1.22-1.29.36-3.39.23-3.82,1.41a.52.52,0,0,0,.07.44c.66,1.15,4,2.52,7.68,3.19a22.45,22.45,0,0,0,6,.35c1.49-.16,2.44-.57,2.54-1.09s-.79-1.41-2.63-2.25c1.76.22,3.34,1.33,3.16,2.35-.15.8-1.19,1.33-3,1.52A14,14,0,0,1,144.09,100.87Z"></path><path class="cls-2" d="M75,148.64A9.66,9.66,0,0,1,69.55,147c-4.09-2.73-5.68-8.26-6.26-11.31-.25-1.29-.54-3.09-.85-5-.28-1.68-.57-3.49-.88-5.21.37-.35.51-.24.54-.1.3,1.73.6,3.54.87,5.22.31,1.9.61,3.7.85,5,.56,3,2.1,8.34,6,11a10,10,0,0,0,7.83,1.23A7.84,7.84,0,0,0,84,140.9a7.63,7.63,0,0,1-6.25,7.44A13.53,13.53,0,0,1,75,148.64Z"></path><path class="cls-2" d="M83.22,135.36c-2.76-8-5.3-14.78-5.33-14.84.53-.13,3.08,6.67,5.59,14.49C83.28,135.36,83.25,135.36,83.22,135.36Z"></path><path class="cls-2" d="M64.63,126.72c-1.62,0-2.81-.35-3.06-1.17.82.86,4.42,1,9.08-.4,3.62-1.1,6.74-2.84,7.26-4.05a.52.52,0,0,0,0-.45c-.54-1.06-2.24-.85-3.58-.5A.26.26,0,0,1,74,120c2.42-.93,3.83-.66,4.39.45a1,1,0,0,1,0,.91c-.59,1.36-3.78,3.19-7.6,4.34A22.77,22.77,0,0,1,64.63,126.72Z"></path><path class="cls-2" d="M61.83,125.74c-.54-1.14,1-2.65,2.5-3.58-1.35,1.44-2.39,2.73-2.24,3.23C61.88,125.74,61.86,125.74,61.83,125.74Z"></path><path class="cls-2" d="M98.16,75.91c.23-1.7,2.07-2.08,3.17-1.84.17.47,0,.57-.12.53-.89-.2-2.44.14-2.8,1.13A.27.27,0,0,1,98.16,75.91Z"></path><path class="cls-2" d="M104.2,84.69a4.38,4.38,0,0,1-1.18-.17c.18-.51,1.48-.1,2.33-.67a2,2,0,0,0,.74-1.6,1.46,1.46,0,0,1-.44,2A2.62,2.62,0,0,1,104.2,84.69Z"></path><path class="cls-2" d="M101.92,82.09a2.59,2.59,0,0,1-1.13-1.71,1,1,0,0,1,.31-.78,1.15,1.15,0,0,1,.85-.37,1.71,1.71,0,0,1,.92.31c.16-1.49.27-3.57,0-4,1,.53.58,3.9.49,4.57-.59,0-1-.31-1.39-.31a.6.6,0,0,0-.47.21,1.85,1.85,0,0,0,.62,1.64C102.07,82.06,102,82.09,101.92,82.09Z"></path><path class="cls-2" d="M98,68.67a10.39,10.39,0,0,1-1.09-1.34c.44-.31,1.31.91,1.31.91C98.14,68.65,98.08,68.67,98,68.67Z"></path><path class="cls-2" d="M19.46,130.36a1.18,1.18,0,1,0,0-2.35,1.18,1.18,0,0,0,0,2.35Z"></path><path class="cls-2" d="M28.59,130.42a1.24,1.24,0,1,0-1.24-1.24A1.24,1.24,0,0,0,28.59,130.42Z"></path><path class="cls-2" d="M37.72,130.33a1.15,1.15,0,1,0-1.15-1.15A1.15,1.15,0,0,0,37.72,130.33Z"></path><path class="cls-2" d="M19.46,139.54a1.24,1.24,0,1,0-1.23-1.23A1.24,1.24,0,0,0,19.46,139.54Z"></path><path class="cls-2" d="M28.59,139.61a1.3,1.3,0,1,0-1.3-1.3A1.3,1.3,0,0,0,28.59,139.61Z"></path><path class="cls-2" d="M37.72,139.51a1.21,1.21,0,1,0-1.21-1.2A1.2,1.2,0,0,0,37.72,139.51Z"></path><path class="cls-2" d="M19.46,148.58a1.15,1.15,0,1,0-1.14-1.14A1.15,1.15,0,0,0,19.46,148.58Z"></path><path class="cls-2" d="M28.59,148.64a1.21,1.21,0,1,0-1.2-1.2A1.2,1.2,0,0,0,28.59,148.64Z"></path><path class="cls-2" d="M37.72,148.56a1.13,1.13,0,0,0,0-2.25,1.13,1.13,0,1,0,0,2.25Z"></path><path class="cls-2" d="M1.23,130.36a1.18,1.18,0,1,0-1.17-1.18A1.18,1.18,0,0,0,1.23,130.36Z"></path><path class="cls-2" d="M10.36,130.42a1.24,1.24,0,1,0-1.23-1.24A1.24,1.24,0,0,0,10.36,130.42Z"></path><path class="cls-2" d="M19.49,130.33a1.15,1.15,0,1,0,0-2.29,1.15,1.15,0,0,0,0,2.29Z"></path><path class="cls-2" d="M1.23,139.54A1.24,1.24,0,1,0,0,138.31,1.23,1.23,0,0,0,1.23,139.54Z"></path><path class="cls-2" d="M10.36,139.61a1.3,1.3,0,1,0-1.29-1.3A1.3,1.3,0,0,0,10.36,139.61Z"></path><circle class="cls-2" cx="19.49" cy="138.31" r="1.2"></circle><path class="cls-2" d="M1.23,148.58a1.15,1.15,0,1,0-1.14-1.14A1.14,1.14,0,0,0,1.23,148.58Z"></path><circle class="cls-2" cx="10.36" cy="147.44" r="1.2"></circle><path class="cls-2" d="M19.49,148.56a1.13,1.13,0,1,0-1.12-1.12A1.13,1.13,0,0,0,19.49,148.56Z"></path><path class="cls-2" d="M68.61,62.7H67A3.67,3.67,0,0,1,63.31,59V54.58a20.57,20.57,0,0,0,8.61-.5c.36.5.36,5,.36,5A3.68,3.68,0,0,1,68.61,62.7Zm-4.76-8V59A3.13,3.13,0,0,0,67,62.16h1.63A3.14,3.14,0,0,0,71.74,59V54.7A14.11,14.11,0,0,1,63.85,54.69Z"></path><path class="cls-2" d="M67.81,55.26a14.27,14.27,0,0,1-4.31-.67,14.17,14.17,0,1,1,4.31.67Zm0-27.53A13.5,13.5,0,1,0,81.3,41.23,13.52,13.52,0,0,0,67.81,27.73Z"></path><path class="cls-2" d="M59.52,47.2h-.43c.84-.5,2-.53,2.77-1.2a3.13,3.13,0,0,0,.45-.5,4.06,4.06,0,0,1-1.7-3.89c0-.37.39-1.84,1.15-2.26a.87.87,0,0,1,.8,0c.51.25.71,1,.84,1.43a6.22,6.22,0,0,1,.26,1.86,6.15,6.15,0,0,1-.61,2.71,9,9,0,0,0,4.53.8,8.78,8.78,0,0,0,2.86-.49,4.73,4.73,0,0,0,2.27-1.73,2.91,2.91,0,0,1-1.63-2.06,2.63,2.63,0,0,1,.26-1.4,1.73,1.73,0,0,1,1-1,1,1,0,0,1,.9.13c.68.5.71,1.87.71,2.14a4.4,4.4,0,0,1-.45,1.91,12.82,12.82,0,0,0,4.52.57,7.07,7.07,0,0,1-4.79-.09,5.25,5.25,0,0,1-2.58,2,9,9,0,0,1-3,.53,9.53,9.53,0,0,1-4.82-.88,3.53,3.53,0,0,1-.55.61A4.05,4.05,0,0,1,59.52,47.2Zm2.65-7.43c-.6.29-1,1.37-1,1.9a3.56,3.56,0,0,0,.7,2.63,3.71,3.71,0,0,0,.75.73,5.53,5.53,0,0,0,.54-2.42A5.81,5.81,0,0,0,62.91,41c-.13-.45-.29-1-.58-1.18A.53.53,0,0,0,62.17,39.77Zm10.5.19a1.23,1.23,0,0,0-.85.71,2.12,2.12,0,0,0-.2,1.1,2.2,2.2,0,0,0,1.19,1.57,2.22,2.22,0,0,0,.58-1.6A2.51,2.51,0,0,0,72.9,40,.42.42,0,0,0,72.67,40Z"></path><path class="cls-2" d="M173,84.69c3.58-.54,6.49-3.32,6.49-6.74V67.79C180,67.79,180,78,180,78A6.89,6.89,0,0,1,173,84.69Z"></path><path class="cls-2" d="M107.82,53.62c-.27-.27-.27-9.77-.27-9.77a6.9,6.9,0,0,1,7-6.74H173a6.9,6.9,0,0,1,7,6.74v9.41c-.54,0-.54-9.41-.54-9.41a6.36,6.36,0,0,0-6.49-6.2h-58.4a6.36,6.36,0,0,0-6.49,6.2v9.5A.27.27,0,0,1,107.82,53.62Z"></path><path class="cls-2" d="M152.22,84.69H115.47c0-.54,36.75-.54,36.75-.54C152.48,84.57,152.36,84.69,152.22,84.69Z"></path><path class="cls-2" d="M87.15,119.93H79c0-.54,8.2-.54,8.2-.54a6.21,6.21,0,0,0,6.2-6.2V86.45a6.21,6.21,0,0,0-6.2-6.21H70.83c0-.54,16.32-.54,16.32-.54a6.75,6.75,0,0,1,6.74,6.75v26.74A6.74,6.74,0,0,1,87.15,119.93Z"></path><path class="cls-2" d="M59.27,119.93H43.22a6.74,6.74,0,0,1-6.74-6.74V86.45a6.75,6.75,0,0,1,6.74-6.75H54c0,.54-10.78.54-10.78.54A6.21,6.21,0,0,0,37,86.45v26.74a6.21,6.21,0,0,0,6.2,6.2H59.27C59.54,119.81,59.42,119.93,59.27,119.93Z"></path><path class="cls-2" d="M65.18,110.25c-2-4.1-3.26-9.32-1.87-11.48a2.12,2.12,0,0,1,1.87-1c2.4,0,3.28,3.12,4.21,6.43a21.71,21.71,0,0,0,1.79,4.92c-1.27-1.07-1.8-3-2.31-4.78-.87-3.1-1.7-6-3.67-6a1.6,1.6,0,0,0-1.44.75c-1.08,1.68-.38,6.22,1.67,10.81C65.26,110.24,65.22,110.25,65.18,110.25Z"></path><path class="cls-2" d="M75.29,123.83a40.86,40.86,0,0,1-1.45-4.57c.75-.78,1.78-6.18-.26-9-1-1.46-6.84-.41-10.12,1.43-1.42.8-2.09,1.6-1.84,2.19a3.16,3.16,0,0,0,2,1.79c1.86.59,4.57,0,6.92-1.41a7.65,7.65,0,0,1-7.08,1.92,3.72,3.72,0,0,1-2.38-2.09c-.27-.62-.12-1.63,2.08-2.87,3.3-1.86,9.46-3.17,10.82-1.27,2.09,2.93,1.24,8.23.38,9.34l1.15,4.23C75.34,123.83,75.31,123.83,75.29,123.83Z"></path><path class="cls-2" d="M68.11,119.06a4.86,4.86,0,0,1-1.11-.13,11.8,11.8,0,0,1-4.62-2.4,16.75,16.75,0,0,1-2.82-2.76A4.16,4.16,0,0,1,58.43,111a2.86,2.86,0,0,1,.23-1,3.85,3.85,0,0,1,3.1-2.45,3.23,3.23,0,0,1,2,.9c.89.69,1.41,1.11,2,1.63A3.92,3.92,0,0,1,63.58,109a3.22,3.22,0,0,0-1.78-.92,3.32,3.32,0,0,0-2.64,2.12,2.28,2.28,0,0,0-.19.8,3.58,3.58,0,0,0,1,2.39,16.88,16.88,0,0,0,2.74,2.67,11.45,11.45,0,0,0,4.4,2.31,4.11,4.11,0,0,0,2.19-.08,2.26,2.26,0,0,0,1.07-.78,2,2,0,0,0-.14-2.27,1.71,1.71,0,0,1,.58,2.59,2.72,2.72,0,0,1-1.33,1A4.06,4.06,0,0,1,68.11,119.06Z"></path><path class="cls-2" d="M66.62,121.64l-.52,0a11.91,11.91,0,0,1-4.88-1.83,16.72,16.72,0,0,1-3.13-2.41,4.11,4.11,0,0,1-1.45-2.6,2.63,2.63,0,0,1,.11-1,3.68,3.68,0,0,1,1.82-2.38,8.53,8.53,0,0,0-1.3,2.52,2.63,2.63,0,0,0-.1.82A3.58,3.58,0,0,0,58.46,117a16.08,16.08,0,0,0,3,2.32,11.34,11.34,0,0,0,4.65,1.76,3.92,3.92,0,0,0,2.15-.34,2.29,2.29,0,0,0,1-.9,1.33,1.33,0,0,0,.13-1.23c.71.41.66.91.34,1.49a2.73,2.73,0,0,1-1.2,1.12A4.31,4.31,0,0,1,66.62,121.64Z"></path><path class="cls-2" d="M66,126.65a26.43,26.43,0,0,1-1-3.81,5.67,5.67,0,0,1-3.06-2.61c1.34,1,2.13,1.84,3.35,2.13a39.11,39.11,0,0,1,1,4C66,126.65,66,126.65,66,126.65Z"></path><path class="cls-2" d="M75.49,119.9c-.27-.39-.49-12.7,4.81-20.84S97.49,91.94,97.61,92c.22.44.09.57-.06.54s-11.64-1.07-16.8,6.86-5,20.15-5,20.27Z"></path><path class="cls-2" d="M129.08,104.25a52.42,52.42,0,0,0-2.7-4.9c-5.16-7.93-15.79-6.93-15.9-6.92.06-.55,11-1.58,16.35,6.63a30.66,30.66,0,0,1,2.51,4.83C129.14,104.24,129.11,104.25,129.08,104.25Z"></path><path class="cls-1" d="M46.57,91.53a1.91,1.91,0,1,1,1.9-1.91A1.91,1.91,0,0,1,46.57,91.53Zm0-3.27a1.37,1.37,0,1,0,1.36,1.36A1.36,1.36,0,0,0,46.57,88.26Z"></path><path class="cls-1" d="M88.78,102.09a1.77,1.77,0,1,1,1.76-1.76A1.76,1.76,0,0,1,88.78,102.09Zm0-3A1.23,1.23,0,1,0,90,100.33,1.23,1.23,0,0,0,88.78,99.1Z"></path><path class="cls-2" d="M52.89,108.59a3.76,3.76,0,0,1-2.58-1,14.07,14.07,0,0,0,2.58.51C53,108.59,52.89,108.59,52.89,108.59Zm2.78-.81a25,25,0,0,1,1.75-2.4,3.36,3.36,0,0,1-1.6,2.36A.28.28,0,0,1,55.67,107.78Zm-6.77-2.46a9.88,9.88,0,0,1-1.22-2.84,8.39,8.39,0,0,1,1.47,2.45C49,105.31,48.94,105.32,48.9,105.32Zm10.17-1.93a3.51,3.51,0,0,1,.44-1.75l.58-1.15a1.39,1.39,0,0,1-.09,1.39c-.23.46-.45.91-.69,1.36A.25.25,0,0,1,59.07,103.39ZM47.32,99.94a11.54,11.54,0,0,1-.67-3,6.38,6.38,0,0,1,.94,2.71C47.35,99.94,47.34,99.94,47.32,99.94Zm-.65-5.59a16.49,16.49,0,0,1-.37-3.09c.54.12.54,1.22.64,2.8C46.68,94.35,46.68,94.35,46.67,94.35Z"></path><path class="cls-2" d="M81.36,116.68a4.05,4.05,0,0,1-2.23-.71,14.45,14.45,0,0,0,2.76.13C81.77,116.66,81.57,116.68,81.36,116.68Zm3-1.3a22.56,22.56,0,0,1,1.39-2.68,3.58,3.58,0,0,1-1.2,2.6A.27.27,0,0,1,84.37,115.38ZM77.29,114a12,12,0,0,1-1.74-2.5,7.75,7.75,0,0,1,2,2.07C77.4,114,77.35,114,77.29,114Zm9.78-3.54a13.26,13.26,0,0,1,.48-3,4.68,4.68,0,0,1-.23,2.86A.26.26,0,0,1,87.07,110.5Zm-12.56-1.33a18.14,18.14,0,0,1-1.4-2.72,5.59,5.59,0,0,1,1.65,2.33C74.59,109.16,74.55,109.17,74.51,109.17ZM88.32,105a.28.28,0,0,1-.27-.31c.25-1.62.32-2.77.32-2.78.54,0,.46,1.22.22,2.86A.27.27,0,0,1,88.32,105Zm-16.1-1c-.72-1.22-1.08-2-1.43-2.7a4.43,4.43,0,0,1,1.68,2.33C72.29,104,72.26,104,72.22,104Zm-2.54-5a4.51,4.51,0,0,1-.64-.74c.58-.11.73.1.87.33C69.78,99,69.73,99,69.68,99Z"></path><path class="cls-1" d="M151.49,148.77c-.22-.42,9.85-15.36,9.85-15.36.45.3-9.63,15.24-9.63,15.24A.25.25,0,0,1,151.49,148.77Z"></path><path class="cls-1" d="M164.36,148.77c-.2-.45,6.88-7.94,6.88-7.94l-7.07-7.08c.38-.38,7.64,6.88,7.64,6.88,0,.38-7.26,8.06-7.26,8.06A.27.27,0,0,1,164.36,148.77Z"></path><path class="cls-2" d="M176.87,44.52H111.05c0-.54,65.82-.54,65.82-.54C177.14,44.4,177,44.52,176.87,44.52Z"></path><path class="cls-2" d="M174,42.34a1.59,1.59,0,1,1,1.58-1.59A1.59,1.59,0,0,1,174,42.34Zm0-2.63a1,1,0,1,0,1,1A1,1,0,0,0,174,39.71Z"></path><path class="cls-2" d="M168.08,42.34a1.59,1.59,0,1,1,1.58-1.59A1.59,1.59,0,0,1,168.08,42.34Zm0-2.63a1,1,0,1,0,1,1A1,1,0,0,0,168.08,39.71Z"></path><path class="cls-2" d="M162.13,42.34a1.59,1.59,0,1,1,1.58-1.59A1.59,1.59,0,0,1,162.13,42.34Zm0-2.63a1,1,0,1,0,1,1A1,1,0,0,0,162.13,39.71Z"></path><path class="cls-2" d="M99.93,64.93c-.37-.29-4.24-4.83-2.83-7.9.79-1.72,3.06-2.59,6.74-2.59s5.94.87,6.71,2.57c1.38,3.05-2.55,7.56-2.72,7.75-.36-.4,3.46-4.8,2.23-7.53-.68-1.49-2.77-2.25-6.22-2.25s-5.56.77-6.25,2.28c-1.26,2.75,2.51,7.18,2.54,7.22C100.05,64.91,100,64.93,99.93,64.93Z"></path><path class="cls-2" d="M169.68,98.62a1.24,1.24,0,0,1-.92-.52l-5-8.46a.53.53,0,0,0-.71-.18l-3.43,2a1,1,0,0,1-1.58-.85l-.73-14.9a1.05,1.05,0,0,1,1.61-1l12.68,7.85a1,1,0,0,1,0,1.8l-3.11,1.84c-.18.7,4.81,9.16,4.81,9.16a1,1,0,0,1-.38,1.44l-2.71,1.6A1,1,0,0,1,169.68,98.62Zm-6.35-9.77a1.06,1.06,0,0,1,.91.52l5,8.45c.7.19,3.42-1.41,3.42-1.41.18-.71-4.81-9.16-4.81-9.16a1.07,1.07,0,0,1-.11-.8,1,1,0,0,1,.49-.65L171.33,84a.52.52,0,0,0,.25-.44.51.51,0,0,0-.24-.44l-12.69-7.85a.51.51,0,0,0-.78.46l.73,14.9a.48.48,0,0,0,.27.43.52.52,0,0,0,.5,0l3.43-2A1,1,0,0,1,163.33,88.85Z"></path><path class="cls-2" d="M126.2,59.71h-11c-.27-.27-.27-11.26-.27-11.26.27-.27,11.26-.27,11.26-.27.27.27.27,11.26.27,11.26A.27.27,0,0,1,126.2,59.71Zm-10.73-.54h10.46V48.72H115.47Z"></path><path class="cls-2" d="M124.33,75.13h-7.25c-.27-.27-.27-7.52-.27-7.52.27-.27,7.52-.27,7.52-.27.27.27.27,7.52.27,7.52A.27.27,0,0,1,124.33,75.13Zm-7-.54h6.71V67.88h-6.71Z"></path><path class="cls-2" d="M171.57,50.26H138.26c0-.53,33.31-.53,33.31-.53C171.84,50.14,171.72,50.26,171.57,50.26Z"></path><path class="cls-2" d="M171.57,58.75H138.26c0-.54,33.31-.54,33.31-.54C171.84,58.62,171.72,58.75,171.57,58.75Z"></path><path class="cls-2" d="M171.57,67.23H138.26c0-.54,33.31-.54,33.31-.54C171.84,67.11,171.72,67.23,171.57,67.23Z"></path><path class="cls-2" d="M65.18,100.78a4.9,4.9,0,1,1,4.9-4.9A4.89,4.89,0,0,1,65.18,100.78Zm0-9.25a4.36,4.36,0,1,0,4.36,4.35A4.35,4.35,0,0,0,65.18,91.53Z"></path><path class="cls-2" d="M103.79,91.53c-5.08,0-5.45-2.41-5.46-2.51.53-.06.9,2,5.46,2s4.79-2,4.79-2C109.11,89.1,108.89,91.53,103.79,91.53Z"></path><path class="cls-2" d="M98.81,93.22c-2-.89-3.11-2.34-3.11-3.9,0-.92.53-2.2,3-3.11-1.6,1.15-2.51,2-2.51,3.11,0,1.35,1,2.61,2.68,3.38C99,93.16,98.91,93.22,98.81,93.22Z"></path><path class="cls-2" d="M104.05,94.17a17,17,0,0,1-2.19-.13,3.79,3.79,0,0,1,2.19-.41c5.06,0,7.8-2.22,7.8-4.31,0-1.09-1-2-2.91-2.68,2.28.21,3.45,1.35,3.45,2.68C112.39,91.67,109.46,94.17,104.05,94.17Z"></path><path class="cls-2" d="M97.52,96.5a.26.26,0,0,1-.26-.29c.22-3-.31-4.2-.32-4.21.51-.19,1.09,1,.85,4.25A.27.27,0,0,1,97.52,96.5Z"></path><path class="cls-2" d="M110.42,96.5c-.52-3.45.07-4.66.1-4.71.47.25-.06,1.4.16,4.42A3.11,3.11,0,0,1,110.42,96.5Z"></path><path class="cls-2" d="M60.58,25.74c-.25-.17-6-15.58-6-15.58.5-.19,6.28,15.22,6.28,15.22C60.65,25.73,60.62,25.74,60.58,25.74Z"></path><path class="cls-2" d="M38.74,73.44c-.19-.46,17-17.85,17-17.85.38.38-16.82,17.77-16.82,17.77A.32.32,0,0,1,38.74,73.44Z"></path><path class="cls-2" d="M87.84,64c-.17-.06-9.5-8-9.5-8,.35-.41,9.68,7.49,9.68,7.49C88,63.92,87.92,64,87.84,64Z"></path><path class="cls-2" d="M84,35.08c-.13-.5,10.32-6.49,10.32-6.49.27.47-10.18,6.46-10.18,6.46A.32.32,0,0,1,84,35.08Z"></path><path class="cls-2" d="M87.54,84.21H76.27c0-.54,11.27-.54,11.27-.54C87.81,84.08,87.69,84.21,87.54,84.21Z"></path><path class="cls-2" d="M87.54,87.11H82.28c0-.54,5.26-.54,5.26-.54C87.81,87,87.69,87.11,87.54,87.11Z"></path><path class="cls-2" d="M80.53,87.11h-3c0-.54,3-.54,3-.54C80.8,87,80.68,87.11,80.53,87.11Z"></path><path class="cls-2" d="M47.35,45.22H40.21c0-.54,7.14-.54,7.14-.54C47.62,45.09,47.49,45.22,47.35,45.22Z"></path><path class="cls-2" d="M115.21,8.81a4.41,4.41,0,1,1,4.4-4.4A4.4,4.4,0,0,1,115.21,8.81Zm0-8.27a3.87,3.87,0,1,0,3.86,3.87A3.87,3.87,0,0,0,115.21.54Z"></path><path class="cls-2" d="M6,72.19a4.41,4.41,0,1,1,4.41-4.4A4.41,4.41,0,0,1,6,72.19Zm0-8.27a3.87,3.87,0,1,0,3.87,3.87A3.87,3.87,0,0,0,6,63.92Z"></path><path class="cls-2" d="M147.39,32.54a29.58,29.58,0,0,1-.89-3.24,6.06,6.06,0,0,1,1.16,2.94C147.42,32.54,147.4,32.54,147.39,32.54Zm-1.57-6c-.61-1.13-1-2.08-1.47-3a5.27,5.27,0,0,1,1.72,2.64C145.88,26.53,145.85,26.54,145.82,26.54ZM143.1,21c-.77-1-1.35-1.85-2-2.66a5.35,5.35,0,0,1,2.2,2.25C143.2,21,143.15,21,143.1,21ZM139.35,16c-.89-.83-1.64-1.55-2.4-2.23a5.33,5.33,0,0,1,2.59,1.78C139.48,16,139.41,16,139.35,16Zm-4.64-4.1c-1-.64-1.84-1.21-2.73-1.74a5.42,5.42,0,0,1,2.88,1.26C134.87,11.9,134.79,11.93,134.71,11.93Zm-5.32-3.17c-1-.46-2-.88-2.94-1.26a5.53,5.53,0,0,1,3.06.75C129.58,8.71,129.49,8.76,129.39,8.76ZM123.62,6.5c-1-.31-2-.58-3.05-.83a5.72,5.72,0,0,1,3.13.3C123.84,6.43,123.74,6.5,123.62,6.5Z"></path><path class="cls-2" d="M72.85,25.54c-.22-.43.27-1.48,1.33-3.12a21.93,21.93,0,0,1-1.09,3A.26.26,0,0,1,72.85,25.54Zm3.34-5.25A7.69,7.69,0,0,1,78,17.44a7.44,7.44,0,0,1-1.55,2.74A.26.26,0,0,1,76.19,20.29Zm4.1-4.66a7.07,7.07,0,0,1,2.12-2.57,7.31,7.31,0,0,1-1.94,2.49A.27.27,0,0,1,80.29,15.63Zm4.73-4a6.77,6.77,0,0,1,2.45-2.21,7.45,7.45,0,0,1-2.29,2.16A.24.24,0,0,1,85,11.62Zm5.3-3.22A6.3,6.3,0,0,1,93,6.6a7.39,7.39,0,0,1-2.6,1.77A.27.27,0,0,1,90.32,8.4Zm5.74-2.33A5.94,5.94,0,0,1,99,4.73a7.63,7.63,0,0,1-2.85,1.33Zm6-1.38a5.73,5.73,0,0,1,3.06-.89.26.26,0,0,1,.29.25,22.53,22.53,0,0,1-3.31.63Zm7.47-.46h-1c-.4,0-.52-.12-.52-.27a4.15,4.15,0,0,1,1.57-.26C109.84,4.11,109.72,4.23,109.57,4.23Z"></path><path class="cls-2" d="M31.77,108.14c-.29-.07-.49-.14-.7-.2.36-.45.57-.39.78-.33C32,108.06,31.89,108.14,31.77,108.14Zm-3.53-1.26a25.44,25.44,0,0,1-2.92-1.39,8.05,8.05,0,0,1,3,.87C28.44,106.82,28.34,106.88,28.24,106.88Zm-5.45-3a24.92,24.92,0,0,1-2.66-1.9,7.59,7.59,0,0,1,2.81,1.41C23,103.88,22.88,103.92,22.79,103.92ZM18,100a21.46,21.46,0,0,1-2.34-2.33,7.42,7.42,0,0,1,2.53,1.87C18.11,100,18,100,18,100Zm-4.09-4.66a19.16,19.16,0,0,1-2-2.7,7.46,7.46,0,0,1,2.18,2.27C14,95.35,13.94,95.36,13.88,95.36Zm-3.24-5.28a16.4,16.4,0,0,1-1.54-3,7.7,7.7,0,0,1,1.78,2.6C10.72,90.07,10.68,90.08,10.64,90.08ZM8.28,84.34a15.11,15.11,0,0,1-1.13-3.18A7.23,7.23,0,0,1,8.53,84C8.33,84.34,8.3,84.34,8.28,84.34Zm-1.52-6A13.3,13.3,0,0,1,6,75a7.27,7.27,0,0,1,1,3C6.79,78.33,6.77,78.33,6.76,78.33Z"></path><path class="cls-2" d="M6.64,62.1a.28.28,0,0,1-.27-.32c.18-1,.39-2.06.64-3.06a7.23,7.23,0,0,1-.11,3.15A.28.28,0,0,1,6.64,62.1Zm1.49-6A9.1,9.1,0,0,1,9,52.8a7.22,7.22,0,0,1-.59,3.09A.27.27,0,0,1,8.13,56.08Zm2.43-5.71a8,8,0,0,1,1.35-3.08,7.47,7.47,0,0,1-1.12,2.94A.25.25,0,0,1,10.56,50.37ZM14,45.2a7.13,7.13,0,0,1,1.88-2.77,7.76,7.76,0,0,1-1.67,2.67A.32.32,0,0,1,14,45.2Zm4.38-4.38a6.45,6.45,0,0,1,2.36-2.32,8.16,8.16,0,0,1-2.19,2.26A.27.27,0,0,1,18.35,40.82Zm5.19-3.37a6.21,6.21,0,0,1,2.72-1.81,7.76,7.76,0,0,1-2.59,1.78A.31.31,0,0,1,23.54,37.45Zm5.74-2.35a6.09,6.09,0,0,1,2.92-1.37,7.28,7.28,0,0,1-2.84,1.36Zm6-1.5a6.07,6.07,0,0,1,3-1.05,7,7,0,0,1-3,1Zm6.15-.9a6.2,6.2,0,0,1,3.07-.82,6.7,6.7,0,0,1-3,.82Zm6.18-.5a6.32,6.32,0,0,1,3.09-.71,6.4,6.4,0,0,1-3.07.71Z"></path></g></g></svg>