<svg xmlns="http://www.w3.org/2000/svg" viewBox="0 0 500 500"><g id="freepik--background-complete--inject-48"><rect x="416.78" y="398.49" width="33.12" height="0.25" style="fill:#ebebeb"></rect><rect x="322.53" y="401.21" width="8.69" height="0.25" style="fill:#ebebeb"></rect><rect x="396.59" y="389.21" width="19.19" height="0.25" style="fill:#ebebeb"></rect><rect x="52.46" y="390.89" width="43.19" height="0.25" style="fill:#ebebeb"></rect><rect x="104.56" y="390.89" width="6.33" height="0.25" style="fill:#ebebeb"></rect><rect x="131.47" y="395.11" width="93.68" height="0.25" style="fill:#ebebeb"></rect><path d="M238.4,337.8H45.3a5.71,5.71,0,0,1-5.71-5.71V60.66A5.71,5.71,0,0,1,45.3,55H238.4a5.71,5.71,0,0,1,5.71,5.71V332.09A5.71,5.71,0,0,1,238.4,337.8ZM45.3,55.2a5.47,5.47,0,0,0-5.46,5.46V332.09a5.47,5.47,0,0,0,5.46,5.46H238.4a5.47,5.47,0,0,0,5.46-5.46V60.66a5.47,5.47,0,0,0-5.46-5.46Z" style="fill:#ebebeb"></path><path d="M454.7,337.8H261.6a5.71,5.71,0,0,1-5.71-5.71V60.66A5.71,5.71,0,0,1,261.6,55H454.7a5.71,5.71,0,0,1,5.71,5.71V332.09A5.71,5.71,0,0,1,454.7,337.8ZM261.6,55.2a5.47,5.47,0,0,0-5.46,5.46V332.09a5.47,5.47,0,0,0,5.46,5.46H454.7a5.47,5.47,0,0,0,5.46-5.46V60.66a5.47,5.47,0,0,0-5.46-5.46Z" style="fill:#ebebeb"></path><rect y="382.4" width="500" height="0.25" style="fill:#ebebeb"></rect><path d="M133.86,114.87c8,4.37,24.25,1,40.57,1.31,22.75.41,45.63,2.45,46.54-6.21,2.9-27.65-22.83-6.87-22.83-6.87s-6.17-15.31-18.07-18-16.2,14.09-16.2,14.09-11.4-7.62-17.1-6.68-7.21,10.79-7.21,10.79S117.16,105.76,133.86,114.87Z" style="fill:#f5f5f5"></path><path d="M62.79,119.25c5.48,3,16.62,1.35,27.81,1.56,15.6.28,31.28,1,31.91-4.92,2-19-15.65-4.71-15.65-4.71s-4.24-10.5-12.39-12.32-11.11,9.66-11.11,9.66-7.81-5.22-11.72-4.58-5,7.39-5,7.39S51.34,113,62.79,119.25Z" style="fill:#f5f5f5"></path><circle cx="358.4" cy="107.26" r="21.1" transform="translate(171.67 431.43) rotate(-76.72)" style="fill:#f0f0f0"></circle><rect x="356.67" y="70.35" width="3.46" height="11.25" rx="1.73" style="fill:#f0f0f0"></rect><rect x="356.67" y="132.91" width="3.46" height="11.25" rx="1.73" style="fill:#f0f0f0"></rect><rect x="384.05" y="105.53" width="11.25" height="3.46" rx="1.73" style="fill:#f0f0f0"></rect><rect x="321.49" y="105.53" width="11.25" height="3.46" rx="1.73" style="fill:#f0f0f0"></rect><path d="M337.81,89.12l-5.51-5.51a1.74,1.74,0,0,1,0-2.45h0a1.74,1.74,0,0,1,2.45,0l5.51,5.51a1.73,1.73,0,0,1,0,2.45h0A1.73,1.73,0,0,1,337.81,89.12Z" style="fill:#f0f0f0"></path><path d="M382.05,133.35l-5.51-5.51a1.73,1.73,0,0,1,0-2.45h0a1.73,1.73,0,0,1,2.44,0l5.51,5.51a1.73,1.73,0,0,1,0,2.45h0A1.71,1.71,0,0,1,382.05,133.35Z" style="fill:#f0f0f0"></path><path d="M376.54,89.12h0a1.73,1.73,0,0,1,0-2.45l5.51-5.51a1.73,1.73,0,0,1,2.44,0h0a1.73,1.73,0,0,1,0,2.45L379,89.12A1.71,1.71,0,0,1,376.54,89.12Z" style="fill:#f0f0f0"></path><path d="M332.3,133.35h0a1.74,1.74,0,0,1,0-2.45l5.51-5.51a1.74,1.74,0,0,1,2.45,0h0a1.73,1.73,0,0,1,0,2.45l-5.51,5.51A1.73,1.73,0,0,1,332.3,133.35Z" style="fill:#f0f0f0"></path><path d="M274.07,130.58c4.54,2.48,13.76,1.13,23,1.29,12.9.24,25.89.84,26.41-4.07,1.64-15.69-13-3.9-13-3.9s-3.5-8.69-10.26-10.2-9.19,8-9.19,8-6.47-4.32-9.71-3.79S277.3,124,277.3,124,264.59,125.41,274.07,130.58Z" style="fill:#f5f5f5"></path><path d="M397.48,130.83c2.13,1.17,6.47.53,10.83.61,6.06.11,12.17.39,12.41-1.92.78-7.38-6.09-1.83-6.09-1.83s-1.65-4.09-4.82-4.8-4.32,3.76-4.32,3.76-3.05-2-4.57-1.78-1.92,2.88-1.92,2.88S393,128.4,397.48,130.83Z" style="fill:#f5f5f5"></path><path d="M434.89,337.78s1.71,31.71-3.26,41.75a2,2,0,0,0,1.81,3h11.4a2.06,2.06,0,0,0,1.84-3c-2.26-4.51-5.48-15.54-5.48-41.77Z" style="fill:#e0e0e0"></path><path d="M435.68,356.81c-6.39-.58-20.51-8.42-10.25-23.53,0,0-7.36-16.71,5.78-24.32,0,0-11.3-13.66,3.42-25.37,0,0-3.94-14.59,4.21-15.38s6.31,27.63,6.31,27.63,16.82,17.51,1.57,29.91c0,0,20.46,17.18,1.85,28.35C445.74,355.8,439,357.11,435.68,356.81Z" style="fill:#f0f0f0"></path><path d="M436.88,344.31a2.62,2.62,0,0,1-1.19-1.27c-.74-1.74-2.81-5.71-6.58-6.65-4.87-1.21,2.76-5.72,7.69.42s5.8-3.79,10.1-2.37c3.64,1.19-4,5.57-6.82,9.18a2.56,2.56,0,0,1-3.2.69Z" style="fill:#e0e0e0"></path><path d="M437.26,319.1a1.37,1.37,0,0,1-.63-.67c-.39-.92-1.49-3-3.49-3.53-2.59-.65,1.46-3,4.08.22s3.08-2,5.37-1.26c1.93.63-2.14,3-3.62,4.88a1.37,1.37,0,0,1-1.71.36Z" style="fill:#e0e0e0"></path><path d="M437.46,295a.74.74,0,0,1-.36-.38,3.37,3.37,0,0,0-2-2c-1.46-.36.83-1.72,2.31.13s1.74-1.14,3-.71c1.1.36-1.21,1.67-2,2.76a.77.77,0,0,1-1,.2Z" style="fill:#e0e0e0"></path><path d="M56.58,337.78s1.71,31.71-3.26,41.75a2,2,0,0,0,1.81,3h11.4a2.06,2.06,0,0,0,1.84-3C66.11,375,62.89,364,62.89,337.78Z" style="fill:#e0e0e0"></path><path d="M57.37,356.81c-6.39-.58-20.51-8.42-10.25-23.53,0,0-7.36-16.71,5.78-24.32,0,0-11.3-13.66,3.42-25.37,0,0-3.94-14.59,4.21-15.38s6.31,27.63,6.31,27.63,16.83,17.51,1.58,29.91c0,0,20.45,17.18,1.84,28.35C67.43,355.8,60.65,357.11,57.37,356.81Z" style="fill:#f0f0f0"></path><path d="M58.57,344.31A2.62,2.62,0,0,1,57.38,343c-.74-1.74-2.81-5.71-6.58-6.65-4.87-1.21,2.76-5.72,7.69.42s5.8-3.79,10.1-2.37c3.64,1.19-4,5.57-6.82,9.18a2.56,2.56,0,0,1-3.2.69Z" style="fill:#e0e0e0"></path><path d="M59,319.1a1.37,1.37,0,0,1-.63-.67c-.39-.92-1.49-3-3.49-3.53-2.59-.65,1.46-3,4.08.22s3.08-2,5.37-1.26c1.93.63-2.14,3-3.62,4.88a1.37,1.37,0,0,1-1.71.36Z" style="fill:#e0e0e0"></path><path d="M59.15,295a.74.74,0,0,1-.36-.38,3.37,3.37,0,0,0-2-2c-1.46-.36.83-1.72,2.31.13s1.74-1.14,3-.71c1.1.36-1.21,1.67-2,2.76a.77.77,0,0,1-1,.2Z" style="fill:#e0e0e0"></path></g><g id="freepik--Shadow--inject-48"><ellipse id="freepik--path--inject-48" cx="250" cy="415.69" rx="193.89" ry="11.32" style="fill:#f5f5f5"></ellipse></g><g id="freepik--high-school-building--inject-48"><polygon points="280.17 184.23 280.17 300.19 280.17 313.9 280.17 382.43 429.64 382.43 429.64 313.9 429.64 300.19 429.64 184.23 280.17 184.23" style="fill:#407BFF"></polygon><polygon points="70.25 304.45 70.25 313.9 70.25 382.43 219.73 382.43 219.73 313.9 219.73 304.45 219.73 184.23 70.25 184.23 70.25 304.45" style="fill:#407BFF"></polygon><g style="opacity:0.8"><polygon points="280.17 184.23 280.17 300.19 280.17 313.9 280.17 382.43 429.64 382.43 429.64 313.9 429.64 300.19 429.64 184.23 280.17 184.23" style="fill:#fff"></polygon><polygon points="70.25 304.45 70.25 313.9 70.25 382.43 219.73 382.43 219.73 313.9 219.73 304.45 219.73 184.23 70.25 184.23 70.25 304.45" style="fill:#fff"></polygon></g><polygon points="250.17 187.84 435.68 187.84 408 157.37 250.17 157.37 250.17 187.84" style="fill:#407BFF"></polygon><path d="M392.14,278A12.41,12.41,0,1,1,417,278v31.13H392.14Z" style="opacity:0.30000000000000004"></path><path d="M348.48,278a12.41,12.41,0,1,1,24.81,0v31.13H348.48Z" style="opacity:0.30000000000000004"></path><path d="M304.81,278a12.41,12.41,0,1,1,24.81,0v31.13H304.81Z" style="opacity:0.30000000000000004"></path><path d="M392.14,211.56a12.41,12.41,0,1,1,24.82,0v31.12H392.14Z" style="opacity:0.30000000000000004"></path><path d="M348.48,211.56a12.41,12.41,0,1,1,24.81,0v31.12H348.48Z" style="opacity:0.30000000000000004"></path><path d="M304.81,211.56a12.41,12.41,0,1,1,24.81,0v31.12H304.81Z" style="opacity:0.30000000000000004"></path><polygon points="249.94 187.84 64.21 187.84 91.89 157.37 249.94 157.37 249.94 187.84" style="fill:#407BFF"></polygon><path d="M107.75,278a12.41,12.41,0,1,0-24.82,0v31.13h24.82Z" style="opacity:0.30000000000000004"></path><path d="M151.41,278a12.41,12.41,0,1,0-24.81,0v31.13h24.81Z" style="opacity:0.30000000000000004"></path><path d="M195.08,278a12.41,12.41,0,1,0-24.81,0v31.13h24.81Z" style="opacity:0.30000000000000004"></path><path d="M107.75,211.56a12.41,12.41,0,1,0-24.82,0v31.12h24.82Z" style="opacity:0.30000000000000004"></path><path d="M151.41,211.56a12.41,12.41,0,1,0-24.81,0v31.12h24.81Z" style="opacity:0.30000000000000004"></path><path d="M195.08,211.56a12.41,12.41,0,1,0-24.81,0v31.12h24.81Z" style="opacity:0.30000000000000004"></path><rect x="286.09" y="313.39" width="149.59" height="7.15" transform="translate(721.77 633.93) rotate(180)" style="fill:#263238"></rect><rect x="286.09" y="313.39" width="149.59" height="7.15" transform="translate(721.77 633.93) rotate(180)" style="fill:#fff;opacity:0.5"></rect><rect x="64.21" y="313.39" width="149.59" height="7.15" style="fill:#263238"></rect><rect x="64.21" y="313.39" width="149.59" height="7.15" style="fill:#fff;opacity:0.5"></rect><rect x="286.09" y="247.43" width="149.59" height="7.15" transform="translate(721.77 502.01) rotate(180)" style="fill:#263238"></rect><g style="opacity:0.5"><rect x="286.09" y="247.43" width="149.59" height="7.15" transform="translate(721.77 502.01) rotate(180)" style="fill:#fff"></rect></g><rect x="64.21" y="247.43" width="149.59" height="7.15" style="fill:#263238"></rect><rect x="64.21" y="247.43" width="149.59" height="7.15" style="fill:#fff;opacity:0.5"></rect><polygon points="250.17 115.95 203.62 147.05 203.62 261.68 203.62 268.25 203.62 382.21 296.73 382.21 296.73 268.25 296.73 261.68 296.73 147.05 250.17 115.95" style="fill:#407BFF"></polygon><polygon points="250.17 115.95 203.62 147.05 203.62 261.68 203.62 268.25 203.62 382.21 296.73 382.21 296.73 268.25 296.73 261.68 296.73 147.05 250.17 115.95" style="fill:#fff;opacity:0.7000000000000001"></polygon><path d="M199,152.21h0a5.28,5.28,0,0,1,1.47-7.25l49.73-33.22L299.91,145a5.29,5.29,0,0,1,1.47,7.25h0a5.11,5.11,0,0,1-7.13,1.5l-44.08-29.45-44.08,29.45A5.1,5.1,0,0,1,199,152.21Z" style="fill:#407BFF"></path><rect x="199.59" y="265.08" width="101.16" height="7.15" style="fill:#407BFF"></rect><rect x="199.59" y="265.08" width="101.16" height="7.15" style="fill:#fff;opacity:0.30000000000000004"></rect><g style="opacity:0.30000000000000004"><rect x="228.81" y="338.26" width="19.09" height="18.22"></rect><rect x="251.65" y="338.26" width="19.66" height="18.22"></rect><path d="M251.65,334.45h19.66V328.9a21.45,21.45,0,0,0-19.66-21.53Z"></path><rect x="228.81" y="360.29" width="19.09" height="21.91"></rect><path d="M247.9,334.45v-27a21.47,21.47,0,0,0-19.09,21.49v5.55Z"></path><rect x="251.65" y="360.29" width="19.66" height="21.91"></rect></g><g style="opacity:0.30000000000000004"><rect x="231.3" y="226.22" width="16.77" height="16"></rect><rect x="251.36" y="226.22" width="17.27" height="16"></rect><path d="M251.36,222.87h17.27V218a18.85,18.85,0,0,0-17.27-18.92Z"></path><rect x="231.3" y="245.57" width="16.77" height="19.25"></rect><path d="M248.07,222.87V199.12A18.87,18.87,0,0,0,231.3,218v4.87Z"></path><rect x="251.36" y="245.57" width="17.27" height="19.25"></rect></g><ellipse cx="250.39" cy="152.89" rx="18.06" ry="18.36" style="fill:#407BFF"></ellipse><ellipse cx="250.39" cy="152.89" rx="14.69" ry="14.94" style="fill:#fff;opacity:0.9"></ellipse><g style="opacity:0.9"><path d="M302.73,209a149.21,149.21,0,0,0-105.57,0,6.24,6.24,0,0,1-8-3.52l-4.76-11.68a6.4,6.4,0,0,1,3.58-8.41,173.57,173.57,0,0,1,123.93,0,6.41,6.41,0,0,1,3.58,8.41l-4.76,11.68A6.24,6.24,0,0,1,302.73,209Z" style="fill:#407BFF"></path></g><path d="M302.73,205.63a149.15,149.15,0,0,0-105.57,0,6.24,6.24,0,0,1-8-3.52l-4.76-11.68A6.4,6.4,0,0,1,188,182a173.57,173.57,0,0,1,123.93,0,6.4,6.4,0,0,1,3.58,8.41l-4.76,11.68A6.24,6.24,0,0,1,302.73,205.63Z" style="fill:#407BFF"></path><g style="opacity:0.9"><path d="M302.73,205.63a149.15,149.15,0,0,0-105.57,0,6.24,6.24,0,0,1-8-3.52l-4.76-11.68A6.4,6.4,0,0,1,188,182a173.57,173.57,0,0,1,123.93,0,6.4,6.4,0,0,1,3.58,8.41l-4.76,11.68A6.24,6.24,0,0,1,302.73,205.63Z" style="fill:#fff"></path></g><path d="M206,185.15l2.82,9.57-2.18.66-1.15-3.92-4.28,1.3,1.16,3.93-2.18.66-2.82-9.57,2.17-.66,1.12,3.77,4.27-1.3-1.11-3.77Z" style="fill:#407BFF"></path><path d="M208.65,184.51l2.21-.56,2.36,9.7-2.21.55Z" style="fill:#407BFF"></path><path d="M220.88,186.73l2-.41.77,4a6.09,6.09,0,0,1-1.64,1.29,7.06,7.06,0,0,1-2,.74,5.61,5.61,0,0,1-2.83-.12,4.92,4.92,0,0,1-2.23-1.42,5.43,5.43,0,0,1-1-5.23,4.85,4.85,0,0,1,1.54-2.18,5.78,5.78,0,0,1,2.6-1.2,6,6,0,0,1,2.39,0,4.74,4.74,0,0,1,2,.92l-1.17,1.63a3.37,3.37,0,0,0-2.71-.61,3.31,3.31,0,0,0-1.56.72,2.92,2.92,0,0,0-.91,1.33,3.41,3.41,0,0,0-.08,1.72,3.29,3.29,0,0,0,.72,1.54,2.9,2.9,0,0,0,1.32.89,3.34,3.34,0,0,0,1.7.08,3.71,3.71,0,0,0,1.65-.77Z" style="fill:#407BFF"></path><path d="M233.54,180l1.23,9.91-2.26.29-.5-4.06-4.43.57.5,4.06-2.26.29-1.22-9.91,2.25-.29.49,3.91,4.43-.57-.49-3.91Z" style="fill:#407BFF"></path><path d="M241.84,189.28a5.45,5.45,0,0,1-1.78-.77l.71-1.77a5.13,5.13,0,0,0,1.53.7,5.57,5.57,0,0,0,1.75.22,2.74,2.74,0,0,0,1.42-.35.86.86,0,0,0,.43-.79.71.71,0,0,0-.29-.58,2.05,2.05,0,0,0-.71-.35c-.29-.09-.68-.18-1.17-.28a15.51,15.51,0,0,1-1.86-.47,3.06,3.06,0,0,1-1.26-.82,2.34,2.34,0,0,1-.57-1.58,2.75,2.75,0,0,1,.41-1.59,3.07,3.07,0,0,1,1.35-1.17,5.56,5.56,0,0,1,2.27-.5,7.09,7.09,0,0,1,1.84.16,5.32,5.32,0,0,1,1.6.59l-.64,1.78a5.54,5.54,0,0,0-2.75-.68,2.58,2.58,0,0,0-1.4.37,1,1,0,0,0-.43.84.82.82,0,0,0,.56.74,7.9,7.9,0,0,0,1.62.44,15.51,15.51,0,0,1,1.86.47,3,3,0,0,1,1.26.81,2.38,2.38,0,0,1,.57,1.56,2.74,2.74,0,0,1-.42,1.58,3.07,3.07,0,0,1-1.37,1.17,5.56,5.56,0,0,1-2.27.5A8.12,8.12,0,0,1,241.84,189.28Z" style="fill:#407BFF"></path><path d="M251.68,188.74a5.06,5.06,0,0,1-1.87-1.89,5.23,5.23,0,0,1-.63-2.68,5,5,0,0,1,.76-2.64,4.9,4.9,0,0,1,1.95-1.8,5.54,5.54,0,0,1,2.74-.59,5.67,5.67,0,0,1,2.3.51,4.6,4.6,0,0,1,1.7,1.35l-1.49,1.34a3.1,3.1,0,0,0-2.44-1.23,3.27,3.27,0,0,0-1.64.36,2.9,2.9,0,0,0-1.14,1.11,3.33,3.33,0,0,0-.44,1.65,3.46,3.46,0,0,0,.36,1.66,2.9,2.9,0,0,0,1.09,1.16,3.22,3.22,0,0,0,1.62.45,3.12,3.12,0,0,0,2.5-1.13l1.42,1.41a4.44,4.44,0,0,1-1.77,1.28,5.64,5.64,0,0,1-2.32.4A5.55,5.55,0,0,1,251.68,188.74Z" style="fill:#407BFF"></path><path d="M269.69,180.37l-.9,9.95-2.27-.21.37-4.08-4.44-.42-.37,4.08-2.27-.21.9-9.95,2.27.22-.36,3.92,4.45.41.35-3.92Z" style="fill:#407BFF"></path><path d="M273,190.43a5,5,0,0,1-1.6-2.14,5.4,5.4,0,0,1,.85-5.23,5,5,0,0,1,2.2-1.5,5.59,5.59,0,0,1,2.83-.2,5.71,5.71,0,0,1,2.6,1.11,5.06,5.06,0,0,1,1.6,2.15,5,5,0,0,1,.27,2.72,5.07,5.07,0,0,1-1.12,2.5,4.9,4.9,0,0,1-2.19,1.5,5.56,5.56,0,0,1-2.82.21A5.69,5.69,0,0,1,273,190.43Zm4.55-1a2.94,2.94,0,0,0,1.27-.94,3.63,3.63,0,0,0,.53-3.27,3,3,0,0,0-.91-1.3,3.13,3.13,0,0,0-1.48-.66,3.05,3.05,0,0,0-1.62.14,2.87,2.87,0,0,0-1.27.94,3.34,3.34,0,0,0-.66,1.56,3.44,3.44,0,0,0,.13,1.7,2.93,2.93,0,0,0,.91,1.3,3,3,0,0,0,1.48.67A3.27,3.27,0,0,0,277.53,189.47Z" style="fill:#407BFF"></path><path d="M284.5,192.6a5,5,0,0,1-1.44-2.25,5.39,5.39,0,0,1,1.23-5.15,4.89,4.89,0,0,1,2.3-1.33,5.54,5.54,0,0,1,2.83,0,5.64,5.64,0,0,1,2.52,1.31,5,5,0,0,1,1.44,2.25,5.08,5.08,0,0,1,.07,2.74,5,5,0,0,1-1.3,2.41,4.91,4.91,0,0,1-2.29,1.33,5.65,5.65,0,0,1-2.83,0A5.79,5.79,0,0,1,284.5,192.6Zm4.61-.62a2.85,2.85,0,0,0,1.33-.84,3.29,3.29,0,0,0,.77-1.51,3.37,3.37,0,0,0,0-1.7,3,3,0,0,0-.81-1.37,3.16,3.16,0,0,0-1.43-.77,3.1,3.1,0,0,0-1.63,0,2.81,2.81,0,0,0-1.33.84,3.63,3.63,0,0,0-.77,3.21,2.94,2.94,0,0,0,.81,1.37,3.07,3.07,0,0,0,1.43.77A3,3,0,0,0,289.11,192Z" style="fill:#407BFF"></path><path d="M296.69,186l2.17.68-2.36,7.74,4.7,1.49-.54,1.8-6.88-2.17Z" style="fill:#407BFF"></path><g style="opacity:0.30000000000000004"><path d="M206,185.15l2.82,9.57-2.18.66-1.15-3.92-4.28,1.3,1.16,3.93-2.18.66-2.82-9.57,2.17-.66,1.12,3.77,4.27-1.3-1.11-3.77Z"></path><path d="M208.65,184.51l2.21-.56,2.36,9.7-2.21.55Z"></path><path d="M220.88,186.73l2-.41.77,4a6.09,6.09,0,0,1-1.64,1.29,7.06,7.06,0,0,1-2,.74,5.61,5.61,0,0,1-2.83-.12,4.92,4.92,0,0,1-2.23-1.42,5.43,5.43,0,0,1-1-5.23,4.85,4.85,0,0,1,1.54-2.18,5.78,5.78,0,0,1,2.6-1.2,6,6,0,0,1,2.39,0,4.74,4.74,0,0,1,2,.92l-1.17,1.63a3.37,3.37,0,0,0-2.71-.61,3.31,3.31,0,0,0-1.56.72,2.92,2.92,0,0,0-.91,1.33,3.41,3.41,0,0,0-.08,1.72,3.29,3.29,0,0,0,.72,1.54,2.9,2.9,0,0,0,1.32.89,3.34,3.34,0,0,0,1.7.08,3.71,3.71,0,0,0,1.65-.77Z"></path><path d="M233.54,180l1.23,9.91-2.26.29-.5-4.06-4.43.57.5,4.06-2.26.29-1.22-9.91,2.25-.29.49,3.91,4.43-.57-.49-3.91Z"></path><path d="M241.84,189.28a5.45,5.45,0,0,1-1.78-.77l.71-1.77a5.13,5.13,0,0,0,1.53.7,5.57,5.57,0,0,0,1.75.22,2.74,2.74,0,0,0,1.42-.35.86.86,0,0,0,.43-.79.71.71,0,0,0-.29-.58,2.05,2.05,0,0,0-.71-.35c-.29-.09-.68-.18-1.17-.28a15.51,15.51,0,0,1-1.86-.47,3.06,3.06,0,0,1-1.26-.82,2.34,2.34,0,0,1-.57-1.58,2.75,2.75,0,0,1,.41-1.59,3.07,3.07,0,0,1,1.35-1.17,5.56,5.56,0,0,1,2.27-.5,7.09,7.09,0,0,1,1.84.16,5.32,5.32,0,0,1,1.6.59l-.64,1.78a5.54,5.54,0,0,0-2.75-.68,2.58,2.58,0,0,0-1.4.37,1,1,0,0,0-.43.84.82.82,0,0,0,.56.74,7.9,7.9,0,0,0,1.62.44,15.51,15.51,0,0,1,1.86.47,3,3,0,0,1,1.26.81,2.38,2.38,0,0,1,.57,1.56,2.74,2.74,0,0,1-.42,1.58,3.07,3.07,0,0,1-1.37,1.17,5.56,5.56,0,0,1-2.27.5A8.12,8.12,0,0,1,241.84,189.28Z"></path><path d="M251.68,188.74a5.06,5.06,0,0,1-1.87-1.89,5.23,5.23,0,0,1-.63-2.68,5,5,0,0,1,.76-2.64,4.9,4.9,0,0,1,1.95-1.8,5.54,5.54,0,0,1,2.74-.59,5.67,5.67,0,0,1,2.3.51,4.6,4.6,0,0,1,1.7,1.35l-1.49,1.34a3.1,3.1,0,0,0-2.44-1.23,3.27,3.27,0,0,0-1.64.36,2.9,2.9,0,0,0-1.14,1.11,3.33,3.33,0,0,0-.44,1.65,3.46,3.46,0,0,0,.36,1.66,2.9,2.9,0,0,0,1.09,1.16,3.22,3.22,0,0,0,1.62.45,3.12,3.12,0,0,0,2.5-1.13l1.42,1.41a4.44,4.44,0,0,1-1.77,1.28,5.64,5.64,0,0,1-2.32.4A5.55,5.55,0,0,1,251.68,188.74Z"></path><path d="M269.69,180.37l-.9,9.95-2.27-.21.37-4.08-4.44-.42-.37,4.08-2.27-.21.9-9.95,2.27.22-.36,3.92,4.45.41.35-3.92Z"></path><path d="M273,190.43a5,5,0,0,1-1.6-2.14,5.4,5.4,0,0,1,.85-5.23,5,5,0,0,1,2.2-1.5,5.59,5.59,0,0,1,2.83-.2,5.71,5.71,0,0,1,2.6,1.11,5.06,5.06,0,0,1,1.6,2.15,5,5,0,0,1,.27,2.72,5.07,5.07,0,0,1-1.12,2.5,4.9,4.9,0,0,1-2.19,1.5,5.56,5.56,0,0,1-2.82.21A5.69,5.69,0,0,1,273,190.43Zm4.55-1a2.94,2.94,0,0,0,1.27-.94,3.63,3.63,0,0,0,.53-3.27,3,3,0,0,0-.91-1.3,3.13,3.13,0,0,0-1.48-.66,3.05,3.05,0,0,0-1.62.14,2.87,2.87,0,0,0-1.27.94,3.34,3.34,0,0,0-.66,1.56,3.44,3.44,0,0,0,.13,1.7,2.93,2.93,0,0,0,.91,1.3,3,3,0,0,0,1.48.67A3.27,3.27,0,0,0,277.53,189.47Z"></path><path d="M284.5,192.6a5,5,0,0,1-1.44-2.25,5.39,5.39,0,0,1,1.23-5.15,4.89,4.89,0,0,1,2.3-1.33,5.54,5.54,0,0,1,2.83,0,5.64,5.64,0,0,1,2.52,1.31,5,5,0,0,1,1.44,2.25,5.08,5.08,0,0,1,.07,2.74,5,5,0,0,1-1.3,2.41,4.91,4.91,0,0,1-2.29,1.33,5.65,5.65,0,0,1-2.83,0A5.79,5.79,0,0,1,284.5,192.6Zm4.61-.62a2.85,2.85,0,0,0,1.33-.84,3.29,3.29,0,0,0,.77-1.51,3.37,3.37,0,0,0,0-1.7,3,3,0,0,0-.81-1.37,3.16,3.16,0,0,0-1.43-.77,3.1,3.1,0,0,0-1.63,0,2.81,2.81,0,0,0-1.33.84,3.63,3.63,0,0,0-.77,3.21,2.94,2.94,0,0,0,.81,1.37,3.07,3.07,0,0,0,1.43.77A3,3,0,0,0,289.11,192Z"></path><path d="M296.69,186l2.17.68-2.36,7.74,4.7,1.49-.54,1.8-6.88-2.17Z"></path></g><path d="M392.14,347A12.41,12.41,0,1,1,417,347v31.12H392.14Z" style="opacity:0.30000000000000004"></path><path d="M348.48,347a12.41,12.41,0,1,1,24.81,0v31.12H348.48Z" style="opacity:0.30000000000000004"></path><path d="M304.81,347a12.41,12.41,0,1,1,24.81,0v31.12H304.81Z" style="opacity:0.30000000000000004"></path><path d="M107.75,347a12.41,12.41,0,1,0-24.82,0v31.12h24.82Z" style="opacity:0.30000000000000004"></path><path d="M151.41,347a12.41,12.41,0,1,0-24.81,0v31.12h24.81Z" style="opacity:0.30000000000000004"></path><path d="M195.08,347a12.41,12.41,0,1,0-24.81,0v31.12h24.81Z" style="opacity:0.30000000000000004"></path><path d="M250.66,156.17h0a1.56,1.56,0,0,0,1.54-1.67l-.76-11.85a.79.79,0,0,0-.78-.74h0a.79.79,0,0,0-.79.74l-.76,11.85A1.56,1.56,0,0,0,250.66,156.17Z" style="fill:#407BFF"></path><path d="M252.3,154.6h0c0-.91-.49-1.62-1.08-1.56l-7.66.77c-.27,0-.48.37-.48.79h0c0,.42.21.77.48.8l7.66.77C251.81,156.23,252.3,155.51,252.3,154.6Z" style="fill:#407BFF"></path></g></svg>